<mxfile host="app.diagrams.net" modified="2022-01-13T04:22:02.873Z" agent="5.0 (Windows NT 10.0; Win64; x64) AppleWebKit/537.36 (KHTML, like Gecko) Chrome/97.0.4692.71 Safari/537.36" etag="atxGprUQfoEavN0NyVLH" version="16.2.6" type="github">
  <diagram id="C5RBs43oDa-KdzZeNtuy" name="Page-1">
    <mxGraphModel dx="1221" dy="575" grid="1" gridSize="10" guides="1" tooltips="1" connect="1" arrows="1" fold="1" page="1" pageScale="1" pageWidth="827" pageHeight="1169" math="0" shadow="0">
      <root>
        <mxCell id="WIyWlLk6GJQsqaUBKTNV-0" />
        <mxCell id="WIyWlLk6GJQsqaUBKTNV-1" parent="WIyWlLk6GJQsqaUBKTNV-0" />
        <mxCell id="pmQxpkpmtZzI0VzPaDf_-9" value="" style="group" vertex="1" connectable="0" parent="WIyWlLk6GJQsqaUBKTNV-1">
          <mxGeometry x="130" y="200" width="550" height="600" as="geometry" />
        </mxCell>
        <mxCell id="WIyWlLk6GJQsqaUBKTNV-3" value="get &quot;Year&quot;" style="rounded=1;whiteSpace=wrap;html=1;fontSize=12;glass=0;strokeWidth=1;shadow=1;sketch=1;" parent="pmQxpkpmtZzI0VzPaDf_-9" vertex="1">
          <mxGeometry x="43.75" width="150" height="50" as="geometry" />
        </mxCell>
        <mxCell id="WIyWlLk6GJQsqaUBKTNV-6" value="Is &quot;Year&quot; evenly divisible&lt;br&gt;by 4?" style="rhombus;whiteSpace=wrap;html=1;shadow=1;fontFamily=Helvetica;fontSize=12;align=center;strokeWidth=1;spacing=6;spacingTop=-4;rounded=1;sketch=1;" parent="pmQxpkpmtZzI0VzPaDf_-9" vertex="1">
          <mxGeometry y="112.5" width="237.5" height="100" as="geometry" />
        </mxCell>
        <mxCell id="WIyWlLk6GJQsqaUBKTNV-2" value="" style="rounded=1;html=1;jettySize=auto;orthogonalLoop=1;fontSize=11;endArrow=block;endFill=0;endSize=8;strokeWidth=1;shadow=1;labelBackgroundColor=none;edgeStyle=orthogonalEdgeStyle;sketch=1;" parent="pmQxpkpmtZzI0VzPaDf_-9" source="WIyWlLk6GJQsqaUBKTNV-3" target="WIyWlLk6GJQsqaUBKTNV-6" edge="1">
          <mxGeometry relative="1" as="geometry" />
        </mxCell>
        <mxCell id="WIyWlLk6GJQsqaUBKTNV-7" value="&lt;b&gt;&quot;Year&quot; is NOT a leap year.&lt;/b&gt;" style="rounded=1;whiteSpace=wrap;html=1;fontSize=12;glass=0;strokeWidth=1;shadow=1;sketch=1;" parent="pmQxpkpmtZzI0VzPaDf_-9" vertex="1">
          <mxGeometry x="300" y="137.5" width="250" height="50" as="geometry" />
        </mxCell>
        <mxCell id="WIyWlLk6GJQsqaUBKTNV-5" value="No" style="edgeStyle=orthogonalEdgeStyle;rounded=1;html=1;jettySize=auto;orthogonalLoop=1;fontSize=11;endArrow=block;endFill=0;endSize=8;strokeWidth=1;shadow=1;labelBackgroundColor=none;sketch=1;" parent="pmQxpkpmtZzI0VzPaDf_-9" source="WIyWlLk6GJQsqaUBKTNV-6" target="WIyWlLk6GJQsqaUBKTNV-7" edge="1">
          <mxGeometry y="10" relative="1" as="geometry">
            <mxPoint as="offset" />
          </mxGeometry>
        </mxCell>
        <mxCell id="WIyWlLk6GJQsqaUBKTNV-10" value="Is &quot;Year&quot; evenly divisible&lt;br&gt;by 100?" style="rhombus;whiteSpace=wrap;html=1;shadow=1;fontFamily=Helvetica;fontSize=12;align=center;strokeWidth=1;spacing=6;spacingTop=-4;rounded=1;sketch=1;" parent="pmQxpkpmtZzI0VzPaDf_-9" vertex="1">
          <mxGeometry y="237.5" width="237.5" height="100" as="geometry" />
        </mxCell>
        <mxCell id="WIyWlLk6GJQsqaUBKTNV-4" value="Yes" style="rounded=1;html=1;jettySize=auto;orthogonalLoop=1;fontSize=11;endArrow=block;endFill=0;endSize=8;strokeWidth=1;shadow=1;labelBackgroundColor=none;edgeStyle=orthogonalEdgeStyle;sketch=1;" parent="pmQxpkpmtZzI0VzPaDf_-9" source="WIyWlLk6GJQsqaUBKTNV-6" target="WIyWlLk6GJQsqaUBKTNV-10" edge="1">
          <mxGeometry y="-15" relative="1" as="geometry">
            <mxPoint as="offset" />
          </mxGeometry>
        </mxCell>
        <mxCell id="pmQxpkpmtZzI0VzPaDf_-7" value="No" style="edgeStyle=orthogonalEdgeStyle;rounded=1;orthogonalLoop=1;jettySize=auto;html=1;exitX=1;exitY=0.5;exitDx=0;exitDy=0;sketch=1;shadow=1;" edge="1" parent="pmQxpkpmtZzI0VzPaDf_-9" source="pmQxpkpmtZzI0VzPaDf_-3">
          <mxGeometry x="-0.8333" y="10" relative="1" as="geometry">
            <mxPoint x="375" y="200" as="targetPoint" />
            <mxPoint as="offset" />
          </mxGeometry>
        </mxCell>
        <mxCell id="pmQxpkpmtZzI0VzPaDf_-3" value="Is &quot;Year&quot; evenly divisible&lt;br&gt;by 400?" style="rhombus;whiteSpace=wrap;html=1;shadow=1;fontFamily=Helvetica;fontSize=12;align=center;strokeWidth=1;spacing=6;spacingTop=-4;rounded=1;sketch=1;" vertex="1" parent="pmQxpkpmtZzI0VzPaDf_-9">
          <mxGeometry x="87.5" y="400" width="237.5" height="100" as="geometry" />
        </mxCell>
        <mxCell id="pmQxpkpmtZzI0VzPaDf_-4" value="&lt;b&gt;&quot;Year&quot; is a leap year.&lt;/b&gt;" style="rounded=1;whiteSpace=wrap;html=1;fontSize=12;glass=0;strokeWidth=1;shadow=1;sketch=1;" vertex="1" parent="pmQxpkpmtZzI0VzPaDf_-9">
          <mxGeometry y="550" width="250" height="50" as="geometry" />
        </mxCell>
        <mxCell id="WIyWlLk6GJQsqaUBKTNV-8" value="No" style="rounded=1;html=1;jettySize=auto;orthogonalLoop=1;fontSize=11;endArrow=block;endFill=0;endSize=8;strokeWidth=1;shadow=1;labelBackgroundColor=none;edgeStyle=orthogonalEdgeStyle;entryX=0.196;entryY=-0.029;entryDx=0;entryDy=0;entryPerimeter=0;sketch=1;" parent="pmQxpkpmtZzI0VzPaDf_-9" source="WIyWlLk6GJQsqaUBKTNV-10" target="pmQxpkpmtZzI0VzPaDf_-4" edge="1">
          <mxGeometry x="-0.2939" y="-19" relative="1" as="geometry">
            <mxPoint as="offset" />
            <mxPoint x="50" y="625" as="targetPoint" />
            <Array as="points">
              <mxPoint x="118.75" y="362.5" />
              <mxPoint x="48.75" y="362.5" />
            </Array>
          </mxGeometry>
        </mxCell>
        <mxCell id="pmQxpkpmtZzI0VzPaDf_-8" value="Yes" style="edgeStyle=orthogonalEdgeStyle;rounded=1;orthogonalLoop=1;jettySize=auto;html=1;exitX=0.5;exitY=1;exitDx=0;exitDy=0;entryX=0.82;entryY=-0.107;entryDx=0;entryDy=0;entryPerimeter=0;sketch=1;shadow=1;" edge="1" parent="pmQxpkpmtZzI0VzPaDf_-9" source="pmQxpkpmtZzI0VzPaDf_-3" target="pmQxpkpmtZzI0VzPaDf_-4">
          <mxGeometry relative="1" as="geometry" />
        </mxCell>
        <mxCell id="pmQxpkpmtZzI0VzPaDf_-5" value="Yes" style="rounded=1;html=1;jettySize=auto;orthogonalLoop=1;fontSize=11;endArrow=block;endFill=0;endSize=8;strokeWidth=1;shadow=1;labelBackgroundColor=none;edgeStyle=orthogonalEdgeStyle;sketch=1;" edge="1" parent="pmQxpkpmtZzI0VzPaDf_-9" source="WIyWlLk6GJQsqaUBKTNV-10" target="pmQxpkpmtZzI0VzPaDf_-3">
          <mxGeometry x="0.5871" y="20" relative="1" as="geometry">
            <mxPoint as="offset" />
            <mxPoint x="118.82352941176478" y="349.969040247678" as="sourcePoint" />
            <mxPoint x="50" y="625" as="targetPoint" />
            <Array as="points">
              <mxPoint x="118.75" y="362.5" />
              <mxPoint x="206.25" y="362.5" />
            </Array>
          </mxGeometry>
        </mxCell>
        <mxCell id="pmQxpkpmtZzI0VzPaDf_-10" value="IS &quot;Year&quot; is a Leap Year?&lt;span style=&quot;color: rgba(0 , 0 , 0 , 0) ; font-family: monospace ; font-size: 0px&quot;&gt;%3CmxGraphModel%3E%3Croot%3E%3CmxCell%20id%3D%220%22%2F%3E%3CmxCell%20id%3D%221%22%20parent%3D%220%22%2F%3E%3CmxCell%20id%3D%222%22%20value%3D%22%26quot%3BYear%26quot%3B%20is%20NOT%20a%20leap%20year.%22%20style%3D%22rounded%3D1%3BwhiteSpace%3Dwrap%3Bhtml%3D1%3BfontSize%3D12%3Bglass%3D0%3BstrokeWidth%3D1%3Bshadow%3D0%3B%22%20vertex%3D%221%22%20parent%3D%221%22%3E%3CmxGeometry%20x%3D%22320%22%20y%3D%22190%22%20width%3D%22200%22%20height%3D%2240%22%20as%3D%22geometry%22%2F%3E%3C%2FmxCell%3E%3C%2Froot%3E%3C%2FmxGraphModel%3&lt;/span&gt;" style="shape=hexagon;perimeter=hexagonPerimeter2;whiteSpace=wrap;html=1;fixedSize=1;rounded=1;shadow=1;sketch=1;fillColor=#dae8fc;strokeColor=#6c8ebf;" vertex="1" parent="WIyWlLk6GJQsqaUBKTNV-1">
          <mxGeometry x="263" y="100" width="300" height="50" as="geometry" />
        </mxCell>
        <mxCell id="pmQxpkpmtZzI0VzPaDf_-12" value="" style="shape=image;imageAspect=0;aspect=fixed;verticalLabelPosition=bottom;verticalAlign=top;rounded=1;shadow=1;sketch=1;image=data:image/png,iVBORw0KGgoAAAANSUhEUgAAAXwAAAF8CAYAAADM5wDKAAAABGdBTUEAALGPC/xhBQAAAAFzUkdCAK7OHOkAAAAgY0hSTQAAeiYAAICEAAD6AAAAgOgAAHUwAADqYAAAOpgAABdwnLpRPAAAAAZiS0dEAP8A/wD/oL2nkwAAAAlwSFlzAAALEwAACxMBAJqcGAAAgABJREFUeNrs/XmYHNd1Hg6/59yq7p4VwAx2kCC4gPsmgIuojZIoy5YtWZZjR7GdxU6cOIl/SZzEsR2Bcr5YpL9E9vc5q+M49mMnsR3HiqPFsmRJ1r5yASmRFHeCIIkdmMHs091V957fH/dW1a3q6p4FM1hm6jxPY7qnuwe9VL33ve855z2EKqq4iGLswX0kwhAQiVEkRiEIWteI0C4BRkR4owg3IBwS6xsIsh3ALgBDAgwCNCwAIFQDKEz+LkEAKvkPBRD3CKQ/JQJMm+yvpggyA2AawFEROiGingFMRGyaRGaSCOMEORLF9ReZNYiNEBkhGIweeEyqb7WKiyWo+giquKAA/8D+hghtF9CwmGAAJJcTyS0CXAOhLSLcTySbARkmkj4ADQABAAZJdgBTHraT24DAAnd3wHfLASDuAe5nDqnFfwwBAgOSWISaAM1DMCWgM0RmHiSnCHhJhJ8QoSPM8QyRmSKSE6MHDjarb72KCvCrWOPAfseAEdpgTNBgMjeB5DZjeDeBtoHkGkC2ArSRgABkwZksz3fgnQE3kQfoPuinR7Sk11PophzC558g6dKQf4hQfl3wFgT/trhFQCS5j+xP+3c0gLMAnRKhFwE5xWxegeA7RtR3meMmk5kcvf/R2eooqaIC/CouqRh/cB8ZYaVNoBTpHQK6xRi1g4CbQXI7hHYB2AiSPiKpE4ll6imYW4DP3+4B9CQdRzQtGvDzAF8G+N1ZfiIHWXDPrucfJ0LpIiCGAJARoZYIzQOYIDLHRPhxAE8xxycI8qQ2wTGlIs1k9EglCVVRAX4VFxvIi9CwEXWVGLWbyLzZgF8HoV1Esg2QISJRGZj7wO4BPEmmtSf3AR7o+0DfRZf3FgDyGf9CR3rK1st/71N98Zl/D7AHkIB8BvwCiLD7OwzJFgUNYEaETgBylEgeF+GvMsevMemXiGSqAv8qKsCv4vzLMw/uY2PUqBi1hUjeKKC7RPhqInMLQCNEwkQmB+7ETpZh8YA9ue1APWXxyAN/CuTkMXyUMHzKUJk6j+5uB7t0u5EDe8lYvpTIQVLG/LPFIQV+Q9kikS4C/oLA7jEMAAaCcQE/CZhDTPKwEfoac3yGSZ8Zvf8xUx2NVVSAX8VKAzwZE9QhPAjI3caoW4nkDQLcAtAos+kDiSIyKbhngJ8wdGPBnIvM3ZNtckCPTnbvH7HkM/guME7ncFpI9z8rHQtDHuSLoJ8yfynIPN7tHPgb/3qyC2AtwvMQGQPJkxD6Giv9pAg9TDAzzHFr9P5qB1BFBfhVLBfoH9gfivBeY4K9IHmvCN8GYDeRpCzeArwBscfo2ZduHMj7erwn4aTsnvJHJOVuS2+ApxU+wmUJ94kn7ZQtCqlUJKnW3wn+WAD0E+bvSUCGjIDGRehVJvOEgD6mVPwskXlp9MCjcXX0VlEBfhULxpkP3bFRm2AbkbxTjLoPJLcRcBlIgoS55386wCdJ2buvy9vfIyfXIMfoPeAvYfGlR+pSQT/3x3uBuSxtIeh1W4rgT4WFAE7iKd8BpOBv/AWAc7d9+UeEYgCvQOhJIv1FEfqMUtHJzR98dKI6qquoAL8KX67ph9BWEfpeEboXhNcDtI3JNMCG2Jdo2Af6DPBziVf2AJ0K7Lwo3SwJ4DPgptVi9wuxfClclSLVLwf9ovyTlXHmdwPp74y/G/CBnwsLARfBX0S4CchJCL5FJF8mks+CzEmmeK6SfSrAr2IdxviD+8gYtUWb8B5A3gfQHQRcCTL9CYNnB+5I2HzC7P1kK3uMPgf0KJRToqsW3wnwVHa1pCJnlY9sWeTvpcdGQRaxEPg6PwAYP+kLwHjs36SSTrYQJFJPDvxT+WdehF8mMo8A+Kji6JvM+nRV8VMBfhXrgM2LqE0mDm4A4f0i/HoQbgWkzqzBymRSTRHsPUafJl4JIIbH7pEmZHMA7/8sADstVcKh5R3FtGBZZm/p/lxlnY7FoLgQFMEfXsmneJKQ8Sp8DLqDvgf8xqQLQAtCTzDrb4nQ/1ZB9AyRPlvZP1SAX8XaAXmIcN3oYKeA3g3htwO4FyRDRCZIWDyxBrOxYM6ZLp8x+4TFw0u25mWbriDvpBjqxewXAHjqpuPQKh3Zi2L30oXVL0LWKfyUbouAd8mXc/rsP8kFMMSgA/yNYUAzTMr8ORbBNIAvE5kvAPikUvExIt0aPfBYddJUgF/FJQn2D9xRM0bdZkS9C0J/BcDVxGbAsngL9MwmrbJJ9fkck0f20wF+vuO1G9BT9mMZIE/dqPliZZ0LKOkkwC2LkXJKfpbuAqSwQCzA+H3Jx2jONH5TZP08C+AlIvOnTPrTrPR3Rg882q7Ongrwq7g0GD0bo7aIqNeL4Z8E6G6QbGc2REVwJwEpA+Z8MtYH+oTJd2XxHsBT6e+7gzxRAd0XK+P0uE0rcYTLokh9d+be87oUQH3hn7kFoJT9Jx28SHV+uxjY2xbwHdjrDPQd4CcLgkBwAsDDRPr3ifU3mfXp0QNVc1cF+FVchGx+f2iM2g7QewX0QwDuJpIBYkPcweDzTJ5YMinHK53MJVs7gL4Lg+8C8F3BfQGwX1zSllb3iC5D/C6ALgvJOF3BXXovAr0WgMLjOhO9yOr6jaf5lzF+wyKG5kD4FiAfA/BxpaITowcORtVZVgF+FRdBnPnQnVcaUe8E8JME3ERsBskxes6BvAf0XLA24EWCfLHEsgfQk4/YXRO3hYWh6yKwCJ8EWubRvpiUpSzwO5Gu4C5LlHQgUqjXXwj8pVT2KUo+YpDKPigAvwf49rpmEeEZEXqaYH6fWX928wcfOVSdbRXgV3EhQP6BOwJj1B4I/S2AfgSEq4h1TSldrsl36PPwyirRXa5JpJpu4F7G4BeozqGuLJ8WlnSKD7kAGn7XBG1PJt+ZkJXFLgK+DNQF+Bdk/om+n1zvYPx51m+0A38dQITaYuhlIvkIIP+dlT68+f5Hqm7eCvCrOA9AXzNG7XVA/0MguZrZMLEBKw1SGdizz+Y9oM8nYpcA8j577wbwPS0SujD+hZh+TzlnAYlnpRB/QYbfRfVZhJRTugj0ZPYF+adbVU8R/P2FIWX8lElACdibTO83WkGMcqxfGQEOEeRjDvif33z/I1WCtwL8KlY6Tn/oTgLoajHqvQB+ikj2EpuaBXoP5FVeq7cA74C+l2xT1OR7MXkftEseR6XsnhaRwMUiE7e07Hr87lOvliPpyJKYvixCyul4fC9g98F/IeYvJbKP8aQeX+t34O+kHQf6CeNXEENtEXqRSH6P2HwcMC9u+eAjVS1/BfhVnGuMPbCfjajLRPhHBfSTBFzPrIMM3HVWYqmMZfhpIrbA5tn9UfbBmBaQdADymXzXRSD/N7tJOrRgspZ6yzjnqyxzkSWZC9bfQ3qC/KIWgV4LQEH6kS5sP91BSBfW71X2ZBo/IFo5eYcs+BvlST4qFuA5gvl9YvMnzPrI6IGDVVVPBfhVLDXGH9xH2gS7RPi9IvTTRLiVWDMn0g0bV1JpQCqv0XeVbagLyBcBvijXlLF4X6LpIukQess9Zay/a9K2TBYqbknI93Rgb+FhAMr9LL4YlFNi0Y4Cd1Blh4ooub/8T5ZLO7LIUswic5cSzb5sIegB/rnnS6rx+w1eqdxjKC3lNA70PcBPfhoBniSY3yGWjykVHR35QNW9WwF+FYth9M57nu4T0D8C4R4iM8RKU06yUfkKHCvZuE7YxQJ9mS5P1IPpd0pA5do+yqtxiBaWcqiwWpDTokh5PwOAA3c9tLeT35MCJY9LQJ8C9zjlfl8yHSXNbBoL9hJBJM6DPNx9Jk4fAxMBEgOm7X6f3Of+VjeppoeU08HKu0o6kluHurN/yT+mg/EXWL/J1/SnUk8K/L6+n4K/GMPTAL5FMP+RSP6SlW6NHni0Av4K8KsoBfsH9wVah3dA+KcBvJdYNjNrB+5ZQtaCvkvIqqxRyjcvywEzocsC0EOTpzIAp96LQMf1PMCXN2YloKwciIcA1wBuuJ81kKrb2xQCHHo/gwLg+0w+efEqtxgsHvBjj+VL4X5TAPw2YNoQ0wRMC9BNwMzZn9r9zrTdc3RnA1WZXAMpB/8eoF7ciHSye+lxXxe5JwH8ROPXidzjV/L4jF9BDI0B+DjI/E4QtB8ZPfBYVdFTAX4VSZx54M7AaHWVgH4KQj9JbLax0rZhSmmP1WdWCFBwnbKFLlhemM1nygaVgzw6F4xyOQddk7JUBv7kGDsHGairPoAbINUHqH5ANQCuZ4CfLgA1B9pBBt5IgJzhZaW9F5kAv/Lu50LSoYi6CTPX8Mzq0UGRxbhFwWf7bfezBZimveh5QM9B9BygZwE95y5Ntyvw/h9ZYBdQAtTSA/y7sfoO8F8s8DutP5V7tJ/Y9ZK62pZzGuETROb3Ceb3WOlDVSlnBfiVTm+CIWPUD0Po7wN0O6u4zkqnJZbs5BtKtXrpLt1wD6DvloDtYPtdmHzXOnzqIudQJsFwaIFcNRyo2wupgRTw8yBfy5h8CvBhCYv3QZ67bzf8jDURepbqiHQBeXTq/LnFQXsLgJN4pF0A/2YK+KJngHgG0NPud/N2t2A0ckb5pZKO9KjB72T1pQvDIoDf/l3pTO4a5KQe6QB9homVBX2jWhB8m1j/FrP+v4r19MiBg5XMUwH+etPq7wi0CW4R4Z+H0A8Qmw3MGhz0AnsL8uw1TvmsnroxdurC5lGUemgRIE9dnp+wdye3qH4gGHTgPggKBux17nMgX8+AnkIP5D09Ht1kGi5JGix0WC/1UF9KmY4vfBuP/WsAscf8/QVg3gH9rL3EU24RmAXiabdAuPyAlLD/YmNWmS6PEuCX7sCfLgxmCVJPLrFLKfAb7QA/qfIRniTInxPpX1dB/GQ1hrEC/HUTp3/lrp3GBH9fQH+dSK603bFWumGlQYEuVN84Nu/LNwtJNwsuAOUg37kIeBpNxyLg5BlVtyAeDAPBMCgYdGCfAL5j8VT35JmwoL+rRTD2SyW6SUS6ZAeQsH9P7omngHjSLgDRlF0AdMstGqaT2S/E/MvA3Xt5PbX+DiWrk/HbhK4P/j7oO8DXypZ0Cr1MMH/ArH9ryy8/dKxCgwrw165W/yt39Rvh14vwzwP0dmLjyTcZ4KdJ2SQhyyUJWaaFE7FLAPrOMs2FQL4BqAEg3ACEwyA1BITDDuT7AO73pBon06SyTOAx97KSoTVyZHaYrvn6v7aLgIky3V+K4O/YfjwJRFOQeMouBrrpKoIWAf699P5FsP7cfaYL4/eZviFXpMQwMXt1/MotAgGM4RYgXyAyv86sv7Xlgw/PVehQAf7aYvUfumu7GPWzIvQ3iGU3sybbKKXTBipW1q6Y0iocD+g5D9bEywH6hRaBEjafPC8B+WAQCDcCwRAoGAaCDUAw5KQap8lTzZNq/CQrdzHIX4/ho7Rj/2mJZ9MD/zlAz9hLPA3EE0A04cB/xoG/7i7rLIr1S+8dgZGFpR6T2TEn8o7Rrm4/YfxGQWJr02B0ICJ4lUn+gDj+T1s++PCJCiUqwL/0Wf2H7qiJ8FtE+JdBuIeVCWyJZcLoPZ3esfoU6DtAvRvQl0g3Xt8RmBYAeZSUbzomHzipJtwABBtA4UZ7WzlNXg1YsOealWw6AP5SlWUu4ALgJ3+lbRO64oP/tMf8HfhH03nmX6b5FxOwSwX+hRi/KUg9Oq/vG51ZNaTVPEbFEHyTyHyI2Hy58uapAP+SDDckfIcx/LdA9DMZq3eMXum8HUKi06cVOChvmOIFGD13Z/Td2HyeySuryQfDQG0jEG4ChZscyHu6fFpRU19EjXt1qC1R/ynIP1EG/mbeVfTMZ6xfTwPRBBCdhUQTnuZveoB4L/BfJPCbTqUq91xTqN0vlHFa0FcwWokYehXAbxPr31cqPl516laAf8mEnToV3CjCvwLgncxmwC+1JGVytfU5+YZ76PSeFw51k2d4EUBf1OdTyaY/D/Ipmx+yQM8Nr7Im8LR4qlj8eZN+CglfPWebvOJpl+y1wG/Bf9Ldr7uAuMNU4+0GzALAnyR5TXlitwj6OX3fafu2SzfT91PGb3gWgs8RmQ+yip6upm1VgH/Rx6lfuWsQ4B8H6OeIzPWsCqw+GSnodHpbcSi5PqFS+aZH6SV5C8RikrTZ49mCdzhsQb42AoQjTr4ZAthn874mzxXAX8gFIAf+ESAtr8xzJq3yscA/BonO2nJP3epe5dNRb78Ixm9QXtFjSmSekhLOnMQTe8ldw88A8u+JzB9u/eWHZqrvvAL8iy6cffEeo9XPE+Gvk9LDSsWpZJPT6pWn1fs19X7jFKNTp+flMPoSNq8CIBhwss0oqLY51egRDNsKG9UHUCOrjS/tUK3i4gL/pM4/qe+fSZO8lvGPAe2zThLqwfqLUo9BeVWPQbm+n2tQ7gb6yJVw5th+HMBoNS3A/1Qq/nVADm/54MOVxFMB/sUR4w/u41iHt4rwAwT6HlZxjYM4K7HMAT5s81Qi33j19Hn93cdY6q3fc2/pJmP0LglbGwVqm51sswkINtrqGx7ImqIoRK7hqYpLAPyThq/E3mHeAX+i848D7dNAexwST1jWb3QXLb/MTK0A/AYL1umXs32r7RtnyGb8Sh7NFvAt6LcB+Ryx+WAQtL8z8oFK4qkA/8Iz+wEx6m+K8M8Ry15WMSmlwUEMCrxuWV+rV1Juh1Bk8L5Ew12YO/dg9KnmHwDhIFDbZIG+tgUIXCI2GLTSTVovH2a2BVVcmsAPyZq8cp29U5btJzp/+xSkPQ7Ec04a6gL8qW6/SOA3Pap5jBTYPlzpJqUOnFbesRcdByJCLxCZf8+s//uWDz48W33HFeCf97CJ2XCHMfwLAP1dZtPHyrH6ILFIKNgiqKJWT7nG0p7yDXcB9G7SDZOVY4J+y+jr20DhiEvEbsxq57numqKCSrJZ06w/9hj/bMb4ozGgPQZpn7F1/SbKQLmM8Zsu5ZymTOrprObJJXU90IdvzRAzdBzkPHnE8DxIfodI/1vF0fHR+yu2XwH++WP1AGi/MernAXovK92XVOGkgK98Zl+owClj9VxSZskLJGS5m3SjHKMfBcLNoPpmIBy1Gr0acLXzjazzNTcCq4q1x/gTeq4LOr9X2dM+7Rj/2Qz4O7T8LqWcHoh3lGsaz4DNdJF+XOlmktA12uvS9di+0aoJyMeY9a+D5OCWDz5cfb0V4K8ys39gv9ImeLuI+g0iuZ5ZK6vXu67ZwBTAvrOuvijV5Fh5N1Zfou8Dhd8zW0YfbgIa2610E25yQL/BJWIT6UZVX/+6DM/vP63pn3FSz7hl/a1TkPZpIJ53jVxYuHLHnAPbTySfJJnra/oxF2UeA6FniPU/Uyr6/OiBg7r6TivAXy1mPywm+KsC+hCx2a48Vk++hBMI2PPBWTSrLxpCdtPpmTrLMbluNfr6NsfoHdirwRJGX33tVYjn49/KZJ54CojHgNZJoH0G0h5zi4IpAf4uid1iuWYPZp/bPbjbmSVDJvEUtX0xfBJkPsgU/+8tv/zIVPV9VoC/wmB/14gY9Y8F9DPMZntOr08YfZDZI5RV4RTr6qlYfeMvALyAfJMsCCqwenxtFFTfDtQ2O51+U1Z1QzXPS76KKnzQd2Wdxmvk0pNO33dVPa3TkHjSde9KwVIBnZr/Yth+h+zjsX3H9NPh6XGSzHXma66SRwyfAOS/sor/w5YPPjxefZ8V4J9zuCEl28SofyOg97PSDVYxlNK2CictvRSvvt4zPOMutghcUmq5JFavrHxT3wyqb3NAP2oTsmrAgn1Ouqm+6ioWI/VEbkqXK+WMzwLtM5nGH01ZmccHebNItp8D+R47gGR8cGrA5pmwuQYtEwfQ1pqhCZI/YY5/Uan4ZGXJUAH+smPswX1K69ptIvwAkbyTlVb5xKzOtPqkY1ZJuYTTTasvYfUdjL7ojxPUgHAEVN8K1LcBoWucUsOuM7aeNUtVUcWSWb9XzqmdSVtsyzitvj/uEru6u75vioy/UMKZ3p9vzCpKPDkTtpi8yh1f4gm0s2Q4oFTrO6P3P1bp+hXgLxHsH9jPxqh7RNSvgeROpXTAQWybqILM6RIeq/fBvTQxywtU4HAv+SZh9X1AbYuTb7Z41TeDrswyRN4qs4oqlo75Wfduy3PoPOvKOM8ArZPWqE23C4lXdC/jLGP7XXYAdm5uJvGYBPjLdP1YQesghuBRZv3zzPE3R+8/WJVtVoC/uDjzwB2BCL8VQr9GJLdx4PxwAp1W4uSsjJWUA3tRwumQbwoMvierr1u/m/rmjNUHm1w9/UA25Lv6SqtYUbZvPKO2Gcf2J5zEc9LW8MfTgI7Lk7odTB/l2n6JxJOr4unG9lPQD2C0EmPoCSbzL4jNF6uh6RXgLxinfuXuOoAfgfC/YqX3phYJXnLWAj6yKhzOmHpnYjbP4Htq9dyN1feDGtuB+nbL6MMRy+rZedGnhmZVVLFawK8zb/60jDNh+ycgrTOuo1c6RvzmLZO7MPtiQresssc1aBmvOzct3XSNWjoOIVq9SGz+NWA+svWXH2pV318WqvoIPLD/0F2BCP80oB5kNrtVGFOm2VsJJwV7p9uXgj0XwN67nYJ9Kv0gTe4mfyP9XVADaptAfTuBxmVAzQF+sCmTcBJWXy3dVaw2N0xmHiTziDlMLTmICAQDIEbixUDpeEzKz0tGtnMln3a6G/nHAJQ+2d9BS/ZnCSA4SVUAEd5khN8AYOoX3r7r27/2xaOVvFMBfoeM0xDh9wP8q8xmGwcxBWFik+CaqXywz4F7Huwp0fA9GYcSUE/kmty87oKsowhQDVB9K6hvF1Dfadl9MJpNm+JaZWxWxQUAfbagz4ED/lo2mJ5D6/4qbQv6PshTBtq59BIVAB4J6FNuISAUb/sLgv933X8mNCjCdwFy/JfeseP5D3/hWCXvVGhh4/SH7h42hv8JAT9HyowoFYMDDRXG2cxZz9I4V3VTqs1TZ209d6/CyS8eARAMghpbgfouW24ZbHQVOANV81QVF5HMkyR1Xe1+UsLZOmqbtqLZLpU8ni7v1/KX1OyLke7duYklgyaYmCDGevDodpBU70A0nwXwG6zif7/lgw+t+watdY0a4w/ugzbBgDHBvwDwT5n1sArizPwsdJYJvAiwL5ZXcvkC0DNZq0I7hKS+DahtA2pbyytwqqjiosH9pHZ/zmr78YQr3zwJtE/b4Ss66m2gltPxO3X9Dt+dbqCvySZwo8A5bbpkrlFTBPl3rOIPKxXNjnzgsXX7dQXr+Vg1RvWJUX8XwD9j1kPsg73P7H1dnbqBfRmrR75hypdwqPAYDkG1UaBvl7NFSLT6gcyfXpxIWUUVF02w0/P73c7T7T4pBFQdRMr671M7ZfHEgAjZ2wyQASQ5NwyB3O8FThliypK5bB8mxun4bPV7uNMobSCjbIIjYgwbo/6p0WoCkN8CML9ev611q+FbGUf9E4DuZ2WZvQoya2MKDDiQtKkKyYWpE+y9xGyWiM00fKv7ozwxywwK+0GNbUDfZVbGCTc707Mh54GzGAmHssQAe0PFu11AGeWqoopzFQoSbT9J5lKS0A0BElBi0QzJ6+1OwKectp/9LtPtyZf4k0fknWLTJwmIxN2V3lEXUW+AsP7F+3Z+59e+eLS1Tr+pdSnjDBoT/CKAf8zJKEIf7JUH9jlPHOrufOmDPdEimT6Dwg1AwzVR1bbaxGyphOMBOgXZycR1GCjo2EAbwBiBgGG0gZR8weJeXhAwaiGg0HaTj1rON70qaKhi2fqOk2ramfd+0qHbPmXLNxNrhpw8g/LmrUTi8cs0TWfjVq4zV5Mr06TMiiEOkuYsGK2mCPIfWcX/RqloZr3JO+tO0ol0XUHo7wD4J8x6iBOwV5lVAqe2xtLd/KwA9kVtvmxoSe75SoGCIaCxA6jvcBU4m2xy1rdG4AagGtYyIegDVD9mpmZx9tQZTE+eQmt+HrPT0xg/eRxTZ8cwNz2NuN3C3My0Yzp5yBcRKBVgdPtOXLb3emy77HJs3bUTo5t3g80MEE26BaBd4VcVy6SRodNXPB8n1ytCREA0BdFRdk44a2SwL/kkuqu77a6DyUlAboFIJKHkPBTbCMkADAxYCIBOyQ4Ew8aof2x0cNoY9Z/SOyuGv/bi1IfuqkPoJ0TUr7HSIzlmrzwZJ/HE6cLsO1h8obwyK8MsgH36uADkrIxR32k1ezXsRg5usGMHw40wPIDJiWnMTM/i1Reex6vPPY2JMydx9vRJzE1PojU3i7jdgtE6tyW2awxlXzB5BAyAwLIkESCs92FoZDM277wce2/dj2tvfx1GNo9gsJ9B0bgH/pX0U8VS2b4GxFkzxFPOluF41qGro86KHS8hK14Xbma3gPLBKh7TzywYXPWOc9rUUa56ZxxkfoHI/MF6as5aN4B/+lfuqhnhnwXoX7IyW0plHM/xsifYd3jflIE/Op0ymUAc2klUjR1AuNXW19e2A/VtkHALZpuMs2MTePGpb+PIi8/j6EvPYez4UbSac+7lCNjpmZRrPPEkzBToCQW8T1k+kvNI8j/r/YPYfsVVuG7fXbjlnjdj85YRNMI2qH3GVmJIVc5cxVLCWMKg553t8hgQnbbA3zoD0U3rtV9WptkB8iW2ymaxoJ/JO9qNTTSGzxDMrzLr/7zlgw+viy3tugD8Mw/cQcao94qo32LWWzmISQWZ66W1OS6AfUn3bAfYd626QYneT6Cg5ubL7rKds317gP69iMNtOHnkBA4//xye+tZXcfTQi5ibOouo1QRBXK6XwOwpRCmwUw7oO77UMhE/29668yhj/FrsbQ5qGB7dhqtuvg23veFeXHvrLWgELWeVO4FssnUVVSxE9t1cXTPnBqyctaDfOu4sl+fdY5DX9U25KVsH0zfSeVtQzvQjBe3574jhU8T6Z5j1xzff/8ia38auecAfe2C/MiZ4uxH1m8z6GvarcZYq43B3GSc3pYpLwF/VgPpWoP8aYHg/ZPAWTM8yDj37HB7+/F/gyAvPYGr8NGC0/ZNMfmOubV2nXDPiin2B4i0CCfgbAbQBtBHU+gZw2d4bsP+t78RNd96NjRtCYP641fsrxl/FoiWeOPPi8UG/dQISz1lUz9Xfo9N33/QA/eXIO3EAY/hFZv0PlYq/MHrg0TWt6a9pwB978HVsdPg2EfXrxOb2rKkq9uwSFq7GycosFwD/MrBnAqkGMLAXGLkXeuB2nBkHHvni5/DMo9/E0RefBUwM5QA+ueQA/jxa5STM38CeRMaBf2wEIIUdV+7F3e98D25745uxYZBBraNANFVV91SxSNDXmeVyfBaIzwCtYxb44zmIMSXMXkrZf66apwfopxO0YvaqeDI/fR2FEKHvEPTPqyD6wuiBx9bswbymq3S0ru0F6F+z0rfkXC+dP44/uKSjGqcM3IuVNiWe9h1ll7VNwKY3Qka/D2OTNTz1uYfxrc/+GU69+jJM3IZiglJWruELBPIdDMCtbWCy1Q5i354WgxOHnsOf//5r+O7DX8cb3vVe3Lj/daiFE0DzuGVvVVTRM9j67mDA0xcT5D4FimcgYgoVO65Jy51/YpLz1IF+ci6CLOi7SuasekfcQwyEsuZFW6vv8llxcIvR6l9rTa8BeK5i+JdYnPqVuzeL8O8ym3erIOJcB60P9ish43BJJY6qgYZvA7a/D7NyBR7/xkP4ysf/BKePvgKJ2wg4AXkP6C9S08u0TFpsnb82Vuuv9Q/htje9HW973/uxbccIuPkq0B63LK6KKnqGyXx44rNAdMZW77SOAfGUY+tSwtaXL++kNgyxlXeMVpDY+u/YZG4oYvBJYv23t/7yQ2fW4qe+JjttT3/orh0Q9QAR3h+EkSoHe/E6YBcJ9sXuWc8p0++cRd8O0M73o7X5x/DUE8fxsd/9r/jaJz+CuYkzUDAIFSFgIFAElSRjL2KHYz9RzN7r1VEbR156Ds8cfAhQfdh2zX6E9QGvmqcq5ayix1GVdoYrr1MXgLRBiPKP9uuLc7ks6ihSoEKCq6xizd6UvHOnEImoawDa9ov37Xzk1754dLoC/Is8zjxwx4AY9c8F/HdUoBsq0euTSpxA0mMLBdA+Z2avQtCmO4DL/w4m9PX43P/5U3z2j38Pp155MQN6BSvjeEnZS2k7mLSrE1H6Ec1NT+HQd7+DqbMT2Hb1rejftBMUz1gGV4F+FT2PqI4KB0fLI5BEOTD3gTt/lQqWywuAfsF/P3MZIQDEYvgaEeCX7tvxrQ9/8VhUAf5FGuMP7lOxrv1VgO9npTcmSVoV6nRSFRhgX8bhvBHassE+HARt/T7onT+FQy/P4aO/85/x+Jc+A92cRcCEMKAM6Fd55Kx0XFlY0FvKy8mxfbfp0XGEo4dewJFDL2LzZXuxaee1IDNvdX2pQL+KBZh+stX2B0VIBJh2Z8nxuYB+AetzvjwgV6rMNRG+SUS9+oF3bnnq337++Jo5gNcM4J/50J1Km+A+gH+TWW9Jyi9V6A8wQd7mOLFHUMgboS1JxiGg/3LQ7r+D1oZ34Suf/kt89Lf/A46/9CwClhyrX0mg90E9ZynuNM2kuiYpr/RvpxKn33QFlxxL/vYCElMm8xA4OdlEMHbyOJ57/BEMbd6BbVe9Dsxka6+ruv0qFpR3iiZ/sGMTUWD6y5V3/AObkm50R9xEUtAny/b7ROgeEX7iF+/befjDXzi6JkB/TQD+2IP7SExwq4j6MLG5XilNKjDgUEMFOpegpTI/+5LbvZg9eVU4GLwKuOIfYpZvwGc/8sf4wkf+AM3ps6gpQpjIN578cU4g79XLp0lUERiXRLV184AWya67+2Lvtk2+ZtdtsxWlC4BTNztPqAWAPylYmp+dwcvPPo1N2y7D5t03QSmyw68reaeKnrjvuxImR1PsJmjF3UG/F9OH75jpu2x6z/MPS6FE2gHAA2L4agIO/tI7tp788BeOX/If8ZooyzQm2G5E/UsiuUuxJts9m5mhpUnaovFZF9fLhWScFOyH9oL2/D8Yn9uET/3Bf8XBL/wFJG6lSVnFdM7JWL8jViTfGJXcLlokpF45hR1AEaTzgI1cHwCznbTYUS7aJdh9XoGzv505cxJ/9rv/GXEUYf9b3gplYmD+SFXBU8UCTN9564sAgbNlEA3gNCBNd6C6kk0ChB1i50zWXMlmcgIVDdbg++k7+3OxLJ/thPTkfCEt4V3aqH8pCP8JgONr4BO+xKWcB+7s0zr4MIF+hlUcqjDyJlYlVTnINVaV+tnnZBzkZRwqYfYbbwd2/z2cnmjgo//tP+Lph74GRoyALdgnnbLnCvIWxCVl5UbEMnKTgD0hCEPU+/rRP7wR/YND6B8axtCGjRjZug1BWEOt0Yetl18BZsbZUycwfXYcxmiMnTyBuekpTJ4dR3NuDnNTE5ifnYaOIigSBIrshTO9fiFJKrFn0EYQaaBveBPe+3f/Ce5869vB8y8Bc4erJq0qFqJwFujNLBCNO++dE7ZsU7c6Rh/mOnKNV7JppLsXj/Gel9gqa4ZEbDtx3eQsHQcwOogA+W2lon+x+f5HLulmk+DSBvs7QmPUjwD011nFoS29NNm0Kk6mVeUbq3KNU72YfSnYE7DhJmDPz+LsdB0f+c0P47mD30RAtgpHeYx4OUAvBeZunERjjJVlBISg3sDg0AZs2bkLe2/dj41btmBk6zbs2nMN+gaHQOyqaFi5bSuBlXK7IWO7GZPrYiBG0Jqfw4lXD+Pk0Vdx8tVX8MiXPovJ0ycRGsAo2DyEs3zoxfYpSYm4KUXNqbP48//+W9gwuhnX3nIzWM/bJq1K3qmiFw/lEEAfoIbcnAbnvCljgIlBTJAcs/cmaKVHF8E9KrNWRmFyVrIDELGTs4xxxJ8s07cST2h08BNGBw+d+dCdf7z5g49EFeBfCB6g1esE/AvMZiOlfvbWH4d8T3sqAHfC9Ck/vKSjY5aKMg5cgvZnMD7Th0/9we/ghccfRkDG1tQ7Zr8cYl+mycdJk5MREAfYctnl2L33Btx0593Yc8Mt6OsfwNDGTSmYLyaY2e5QkE/g1Pv6MDwyimtv34+o3cb1++/Cn/zmb+DUay878iQwTrJRyWfUA/QZgHIdj1NnTuBT/+O3MfSPfhG7dl8LxNPWjqGKKnqKD6EdBKTctCwzb0t942k7HD05J315x2QTtSTtnO8C+k7KFeONSlRO2hENCEHSn7TRGP4FiHoewEOVpHOe4/Sv3HWVEfXbRPJ2FcTEXglmrrkqLcEsOl8WxhIWmb1vhJbc7r8MtOdnMcvX4SO/+e/w+Jc/A5bYafaZm+VygT4Bd22cdw0HGNm2E1fddCvufNs7seOKK7Fp67aUua92HD98CJ//6B/joc99GnFrDqFLRNv3mpVkdl2Q3fuKNBAbwg13vgk/9k8PYLi/BUx+B9DNCteq6L3nTYBeT7tu3ONAdMqBvsnLO2UDzsv89Ls5bKaduAzjfurIWSpbeUcg9EXm+O9t+eWHXroUP9FLskrnzIfu7BcJ/xURvY9VHCjnjZOUX6a6vZJSgCcPzPPll10StgpAbRi0+6cRD96Jz/zR/8A3PvVRsMSoubLLpco4fhI2AfhIA5EGVL0fl19zA+77Kz+Od//k38M973w3tu++Av2DwyDics1TtK1b1o4BRWetzUHrFNAe67zEU0A8ZysgUmETuUGiQxs34brb78DwyAiOvHwIczOzMIWaekJ3tp9WUrg8xJkTxxHU6rjmtjfY+6IxT2CtLtWleEkk2OTE9DiqtICkG5dKqnBydJayks30zxaK+4UKDJiyMs70NpEI7xLh+i+9Y/uXP/yFS68p65KTdM48cKcyRr0bwI8T6xor45qqMmaPRLenEumGCmBfmFTlPy4zQmNg8ztgNrwJzzx6EN/4zJ+BTIwgWJ5mL7AYm5RPxlqsfAOFK2+8BXe+7Z245Z43Y+OWrVCqy1ckxjKfyE0TiqftRc9lVCalNKXiTraakQJU3U7bSoazcC2Vet74/e/F6LYd+Is//u946clvQ2INUbaUU1isZt+lkifJcSshRLqNb33mE7j57jfhiquvAFongfbpishWsTAvpRqgBhxBiW19vmkD3M4qcPyLk3es1ONOA8qPSyzNA7h/WQRGAQQDFtujIoYgQjXR6ieMUV8+88Cdf7r5/kf0JfZJXlrx82+77BYI/wYpfUXaSRvEztfe2h1zkqRVJdINF8EeXRur0vuGbgBd8Q9x/OgYPvJffgPjx15FLfAaqmgJQO9YfeySsG0tiAxhZPtleM9P/gx+8Cf/Pq69/Q70Dw1bvd1/tmlZD/q5V4DpZ4HZl4C5l4HmMcvotRtHKJGX6DJdLjrbFZi2XSiis0DrhP0/wmE7SxcAs8KWXZfjpjtej0ZfP44cfhnz8027DXYsXiTf5JIjV+5+AJidmUFzfh7Xvu71qPVtAJonqlLNi1nxpSKSLnBZra7qXE21S8tK217IIOsC8cuOC2M+pbPlljpq+TPQB4n3V8V/ZEOErwfo67/2xSMnK8BfPSlnh4j6N8TyVqvba9dcZTpN0TqAOy/lZF46XRqrkkt9K2j338U8XY6P/vZ/wAvffiTtoLVWCYt77SadKGXBPtKCdiygoI5b3/BW/Og//Ge47Y1vRb2vP7/dNJFl8LOHHMg/76yIE6+alS5xNHan0DoNqBoQ9AOkQERo9A/gmltuxxV7r8P05CTGTp9GFEUddf5Fni9pL4AF/rFTJ7Fl527s2nsrSM8C0QSqqp3zANzsmZWpEAjqQNgHhA2gPgjUBoDGENAYBuruZ2Oj+7mYyxBQG7R/qz4EhP3Z3w9q9v9ME11mid855W0XAADasf2WB9IFAJei5OjtxgUdcmRnc5f3GO+xIrQVQlt/4b6dX/21Lx6dqSSdFY7xB/cprfmvEfBOZk22/NKA2YDYK8H0Jk91kAIqSjdFD/tO6Yc2vR4YvhUnnz+Mpx76up1IFSycsOxg9UbS+vTYafV9wyN4y3veh7f90PsxtGkkD/QSA60ztlmpddJ5zZ9HJhxPAhPfBgYm7fCWhO0rhev33YUde67CNz7zSXzpYx/B1NhpKBYYduWbDK9mnzLEdx9rc3Yaj335c7jprjdgsH+33aGYKoG7cvjODlwDW97IAaACCCW3FYQYOtaYODOBVrOF6cmzMNqg2WwhatspZnEcI470ouRKEUAFjDAM3XHC6O9vgJkxMDyARl8dm7ZsRhgGtqwymgXaM0DUXNoOjwJXuTMEBE1LiKRld7eFBqtExnHeCV5VD4FIPKnHu991jQtL+lECAhEDNgRRBBYNMUTGBN8jRv34+K/u/3cjHzioK8BfoRh7YD8Zo14P0D8npYfT8kun3yes3q+3z7H0AtiTB+456YbyQ8ipNgyMvBFQg3j5mSfRmp9FyNlEqoVKcoxXT59q9RqACnHDnXfie/7q38DeW2+HCsI8o2+dAuZesoBvLuBsZT0HTD9j59gO3QTUNgPEIGZs3LwV3/fX/hZu3H83vvixj+DJh76Gucmz0EJQLAg4sVtwOqp4u30RPPftg3ju8Uew/9632pzB7KEKqJcjc3DgGHsdCBqWtasa5udamJmZx+xME1F7DhNnJnDs8BGcOnYK0xPTmJudR7vVRnN2DjqO0ZpvQcQgjmIYrUGgtGeDqMB4C0Cf/iSCUgoCAREjrIUgIoSNGoIwRGOgH8ObNuCG192AW+66BTsu24baICzwN6dtwYFZCDfZdeP2AWoYCBzgmwhAOz8IJdHsPbKRDkxJSjeTYSmSgbw9D+0iQEqcrAkYZexsFSGI7WEZFs3/TOvgobEH93999MBBqQB/BULAW43wAWKzK/G0Txh+bmpVF6Ze6oa5wAATIgLCDUDjcgDAidde6Rgg3o3Ro6TUMtKAAWHDlu2476/8GO753nejf2g4/8xoEph6yko2cpEUAIixryeaAAauAQausskzx/b3XH8T/ubPX4eXvvsdfOljH8Gzjz+C+elJxCSpNYO/g04aIpvzc3jo83+B29/8Nqi+3UDzaDUxazGSBisL7GE/EDTQjoG5uQhz0y0cOXQIRw4dwZmTYxg7eQaTZ85icnzCgrkx9jDnbEay3zmdeCGF5OROiDUbhMpNYevG7hNLD4hx8p0GYg0RoN2aQxPA1GngxCHB0w9/B5/54z/H1Tdfi70378Vtb7gdm7dtRyMQoD0NtKYA3e7ekU0MUN1aMKSAPw/EE3YXzJkWDzjWz5k2L/C0et9ywbMj8W0bSFx9PgQsBqI02NbmwwjtFKMOGMhPAThRAf45s/s7GsbwjxHJW5idhJMCvXGsvsvUKhTAvqTTNs0zFn11GIDqA8IRAMD8zExBkxbbheehmZ+UNZ58ow2g6n249e434S3v+WFcffPtCMIwL980TwLT37Vs+mLUs/UcMP20Y/s3ArUtaamcCgLsvXUfdl15DZ597GE89tUv4ulHv4XmjK2VZs+1UCDOtE0wPTGB1twc+gdGgHCj/T+q6AR6VQNqA5CwH4YbaLUNXnvxKI6/dgJHXz6Cw8++jDMnTqM130TcjmB0nFUWM9AXEpg4O/S9iqoigSkm26mgYZcxHEmZftrXivwPyk9MEyCam8F3v/UYnjn4JL74Z1/ALXfeihv234jrbr0WQ8MbwPGsZf3RbLnkQwrgOiADgGoBas5N0Jq1zNxWUTq/nETqIe++gpTDGavvHJHoHuaAn8U4icd24orQW0TUj5954M7f3Hz/I80K8M8hjFFvFOH/h1U8kJqhccE6oajV56QblHTT5gePlzZkERyoZfYEvkmZMXBHATmNzzFYYw/q2NXWkwqxa++1eOf7/wZuuOP16B8cKgHSZ221zcXOcCUC5o8C7QlgYA8wcDUQDKefz8DwBux/6/fgprvegOOvvIyDX/ocXnz6SZx67RXMTk+5bbBdILZfdjne/r73o29wyH7W9Z32b1eRMZCwD2hshAmHMHZ6Eq+8+DIOfuURHH/1OM6eGsPc9AxE67R4gIlQZ6ul+4Z4qZNpR/KRysG+uLFY1C4chbr1HO67BUEyV9a0wTDG7OnT+Oon/xLf+tzXsPXyHbjj3rtw6923YtcVOxGgDcyPW9lHF3a9FALcANQgEGy05moSWeAvlGBmhUSUzrjN2S8YT7/3QB/izNpErG2y34lrbCeuGO7XcfizEHwHwOcvcvpw8cbpX7l7mxH1x8zmLSpsc1KGacsvDTiQ3EzaDrtjVZByVKduTwVbBVLepzLyduDKXwIowMd/9z/j03/4ewiUIPAmViUHdTExy2Edl119Hd7wfe/Brfe8BRtGNxdWsrZNxk4/bStiLrkqFbKlm4PXAn277W6o5HBqzs3i2OGXMDk+Dq0tUwvDEDt278GWXZdb6Uy07byd/m4F9MRAfRjoG8F8xDj66il89c+/jOe+8wxOHTkJhoHirLM7OQ6Zk0lkrpiAstvpiX4RjNEs94uyO+HYiMtzCQY3bcB1t9+IN73rzbjy+isx2K9AzbNAc8IBv6sNkyg/Fzc6AcTjrvQY5Z24vrFaMvtWi5t9i3wnbtFkLaa0C9dECtp14cbtmoHQV5n1+7f88rdOVoC/xDjzwB2sdfgPAPoNFURhEEbgMBlXqN2oQsmVV1K3evtE11ddDNKKz0lOvI1vAa76AEABnnn0W/gv/+oXEDVnnce90/mQtyZWtQZ2XXkNbn/z23DH296JjZu3FJqnxPrIzDwHzL9y6evWFAD1rUD/HqDvctewtcTDKp4CznzFOiOuZ+mm1g80RtCmATz/1Et46AsP4cmHvoOZiUkwJJuDnIJ8psOTp8PjIgH3BcE/dYSVjp2xbUYEGgODuO51N+D1970eN995ExqhWOCfH/d6Sdqu+fCstV1on7CaPqTDOqG73YLkrBeKt9Pn6wTwCSZmmFhZwG/VoeMgIjL/VAXt/7L5/kcvSkvYi1bSMUbtFeGfVUqH7Ffk+CWYZW6WVCLx+KMzCSVDTjzXzPRsabiDKQYowFU33Yo3vuu9+NqnPop2c94WSBJSiWLD5q24/JrrsP/e+3DNLbdj45atnZ43pmnLLKeftknQtWATLO2sdHT2EDB4DVDbCgQDiwN+3QSmvmvBfr3aJnMA9G+BaYzixLFxfPYj/xsHv/II5qamETDQCAgBM5TH6Kkg1VySS5y3UCkCDBOUCAIDaEWItSCan8G3v/oInjn4FK573Y14xw9/D667ZS+C+jAwc8J2movT89UAYIaBYA6IY7uLTj3ws/xCmr41eT2fSLzZJ+7kLj5fJHXZJBGQGJCxDr0iHBrNP6uN+ksAz1UMf/FSzogR9esAfjIII1JhBBXG4DAbaMKBdGfzi2D31GWmbaoNhqNA317gsr8N9F3h5Ik5PP+dR/HkN7+G2alJgAg7rtiDK667EVt2XIatl+8ut0IwbVvpMvOsBca13FlKbC0aGruAvl1AMGR1Vg6Qy3Abx8qmngLmX1un3bZkG5UGd2ByVvCFj38RX/+Lr2L8xCnUAnLjMe1FUVZZcymw93OVfIyxck+sBZG7tGNB39Ag9r3lDnzf+9+FnZdtBs2PA7MngHgWMHO2fyQ67QzWJpA2JhaZvUYy17O7h/5C0k5MEG0N1nS7Zg3WolAA/Hfm+J9v+eWHxivAXyDGHtjP2oQ/Lkb9/zmIt6jAgr2qWf0+c8FcpJTTzTYhsZHx/PDTj0QNAeE2oLYNGL0P2PQG589tTcCidiv1lFdBiCAMSj5KyWrqZ1+yLNi01hGWuelFwSAQbrI/VcN+0Hre7nDaZ+yJul67bPtGYAZ34tiRcfyf//YRPPXQEyAToxaQte7gvOU20fr5aPJ+U1biacf2osHYvfcK/JWf/lHc8LrrEeopYPIwEM/YDvR43AJ+dCpr6Ouq53cCfv528TmSeRVqdsCvELcD6HYIE4fQsTrDrP+ZCqI/HD1wcUk7F52ko02wS4T/MbHZzJwNNCmVcrrJN10tQIolmUWwhwV2NWQBihvA3CGblOy/0uEYoVZvLKBHtWwidvZ56xWj59cfqAnsWdFuulJTpBVPlXcOAY2NkKHL8ewTL+Ej//VPcPjZl1BTQC0khI7dL3bK2Br9hOx5LpRWFIlj65EWHH7uZfz+/+/38aM/81fx+rffBTIxMPWKlRiTTlw9m7nBev0GQr5nvleq6f6/tDRTkMcHyQzXKNmKKDhJx9bni2EQ86gR9Y+h5UsAXruYPteLyktn/MF9bEz4cwD9mFI6V5VjL67BSqGLpz1593Vh98kXqNzjfSkHbLv3wlFAbQR40N7ZOm3BPxi0ScoydDNt2zg18wIw+ZitOGmddp2yldVtmiGT9W6HDKCxAdi4B4deOIr/9v/9bzh26FU0QkIjtMw+DLz5CoQqikTC/ZiemMGLTx/CzXfejA3bdtrftqaR+fQkU7LinJ6RWphIicmau5b316FSYSRnpWx8AzkiMbwdgukPvHPLV/7t549fNGzvomH4Yw/uI23CW0Xob7EynCRqOU3WSrbyFtk65cHbb7Aij91Trh6/CPbkEj9DAA9YgCcn1cTTwPjXgfnDNiEZbrDyhGnbpGM0ab3dW2fsFlKWagx18dCqJGllVMEOTQAyZK1kK5+zc6BYNWBoJ+ZbwMd//+M4c/QE6kEe6NUyR2SWYqN0w8zsjqLBpVy4w6+rpu9bcySlp8zA2IkzOPjVg9h9zRVA/xar50sLkD53Hg9kDrKO06X+OW4YOgrKgCz2etKQxU5mNgbMGsIMYWaj+W9qHX5s7MF93xk98NhFcdZcNICvTdAvhv8GsVzBKgYpjcwgbalSDi3o4urN+cjkBu63mX7us/pzMs4esEA+64ZwJ/eJsSzCRJe0ZCMMmEBgQoEJnKlUGaoLgTXAEdlLXNHPJUd9A1AbwsvffQ7PPP40FMGrvqElzVaQAuMt/l5cWaIUgL0U4EW8jtmuxHrVAT4B9Nz/7VuVpNezsk4dOYkw8ROKAuufzwnozwE6hu/g1wngSYMVSqt0UqknJw/bLn9KZB1BOhbRduAGVxgd/E0RfBDAbAX4OQZJ9wH4CVYxZ345luVDFWbTlrle+mZpuaQt8nYLVKi3T9l9I2P3VM/YvRTMf8UgnbRzqe+OFaDrAl13jJ4WhhitAF2zHiQcE9Q8QV3a69355bB9owApTE/MYH52Ho2Qc/XziWVH0uNRBHRxwJy3NPDtPvzbTm30wNx/bvL3/Md7xqYFCUUWtLqXBYC8COoEKn1CrivY+9vGTU5L/KkMCNfcdDXe+H1vyp5JgfPaSQzWBrNhKdLO/oOC344ldV4XbtnQc89gzXfmIXEMP2e3AIgQGx38OIS/DODjFeC7OP2hO7eK4X9AbLbmbI+Vx+w7fO2Rr5/vJeUUfXI6JLnAAr0adKyg5tIbaxPFhAFdA3SfwJQcATo2aDUj6NhaIRATgoBRqwdQAXt/w+4ITIsQNAGKK0jvGRxYSQf2MyUiC+ACZzkggCEYylr/M5CWji7VHEgXgT29T9KTgdguLswKpBisFILAtpbXGzUwM0SAwQ2DtvJMgCBU2Lh5E1ipHP0nxdiyYyvqffXeO/dY48zx02g3Wx2IPzs5jbmZOee0CbTmm5ifbQIE6DhG1I4hIoijGKINRGvbra0IG0aHcOe9d+ItP3Avtl++3R3YsZuT7IA/qc2Xli3Z1NECLB8dVskdEo7pIu04FQLKgIwGK4IYDTG8VQz/g9MfuuubWz748KkK8AGI8PeC8GZmQ8QaxDptsgILqOBV3bsSp9eQHk/qQVG796ScJJctaw/wRQHRAGDq2QCgJCbH53D4udM4eWwSh58/hcnxebRbGn39ATZtGcTlV23GZVeOYM91W9DoC1Pgjxt24QhnAI4qXO/Nge0xtWXbKIY3bcDsxARiQ2DX2p944CSHnkkXBAvepmBLICYbgROGAcJ6Hf0DfRgcHkTf0ACGNg6j3qghCBT6hwbQaNQxuGEIA0MDGNo0jE1bRkBMUF6GOAgUiDmtSklsjosMvVavgxeYACQiaDfbMKazOjGOYgvgDvCN1tDauI20pPbMZ06ewezULGYmZzAzNY1avYab7rgZ2y7bjka/VzHXSuY0J7qMk3aoD1D9gJnNErjICKCILGEBKL9tdXxry8zKAMbAWLNH0kJvEsPfC+B/XgR7zAsbYw/csVnr8GOkzBtUEJEKbINV5pmzxJr7YoNV4o2j8ruBHLsPRoBwq63MUYOO4fOagxtdI8QDBBPm2fyxV8bxyJdfwncfO4rTRyft0At06qhCQKMvxOVXb8Y977gWt9x5OQY3ZCccaSCcEahWpe+Un20K2HIb0NgErTX+7H98An/2B38G3WoiUJTW2yfMPNGqiQhBGKLe10Df4AD6hwbQ19+HjaMbsHnbKLbs3Iptu3cgCJR9XL2GRn8D9b46+gb618dn254Czr4AtCa8g9bNvtXTQDxmfXZ0oe9D8vX4SY19aUNW0qzVtTbfNWMlPjuRgo5C6DiAaP6GCqL3br7/kTPrFvDPPHBHaEzw0wD+nQrimgX7GCrUoGDxHbV2Qeg1l7akmzZl9/0W7MNRgIedCViwxoAGiBuMeIAgKmNeE2Nz+MqnnsG3Pv8Cpsbn7HrpWAuXJs4ysysOFK69ZQe+/8dehyuv2wpWlIH+tIFqS6Xrl8WGK+2FGM35Jj79vz6Fz3/s85g6O4laLUS9UUejv4GNoxsxun0zdu25DCPbRtE/0IcNm4Yxsm0UG0Y3gikbNEDns/V2JewvaAXJlGigeRaYeMnZLBTS1+LmNesJIDrpjNUK21CzuIaspEbDdupKWv1pFwK/A5ftJQH8KICOgwiQn1Mq+m+b73/0gu2DLyiyifB2gH6cWNfI97lnyTSxMjmmLHFLCzyWSpY3Unarx335RO0aQ6qE2Sdgb4zg8HOn8Bd/8h08/8Qx6FgjDGxXp3KfFReFiERWMIBmQBuDZ799FNOT8/ihn7wT1926EypgiALiQQJNCjiuEL8j5k8BA9uAcBCNvga+7/3vwmVXXoZnvv0sNm8bweVX78a2y7ejVq8hdAuA7eReKUnJX8Ed7pjI9UgIYOJMejI63yQnYqdSnSvYqzB/MpJy1huOnaggO3k5dOevssNfUpDWltU3x4HZ40DczYae7d8WNzCFZ/MVO0DeFrmsIcv32nFlnWmjlslLQZmen1xS/69QDP2EMeqTAF5ddwx/7MF9gdHhzwnoX6sw7ldBBA50xu4DARetj5OmqsU0WC2G3at+INgMBKO24SqtvV9DYN9gRIMK4hi4jg0e+dKL+PT//jbGT06n7osdxlywVQgEwLiyjnRko0Ha7h4bwcYtQ3jfT96J/W++MtV6VdMgnIqrmv2yU25gB7Bxry0hXCnWbWLX7+80CaNdn4jzhzexnSJlIg/gTaZpJNVoCcAn3gYw5+cz8cHc9yhnlYnqxC4ZG1iAj+cXHgEqjuWbWeumGY/ZnyUs32fu5VYLPXx3tEuQa1hJJ2H6UeBLO3OA/H8C1fqN0fsfuyAlDhcM3YwOrxPw32bW/cxek1VioUCFkYV+U1WuwapwnQv2CaVgj6wyh/stu4dfhrlGwL6eB/t2K8bBrxzCR3/vYbTmWqiHhFAxlELaxp+vA09adCirBDEEw9a6lglgTZg8M4OP/t7DGNkyiKuu32qrLOoMbjCCeV1JO0WWPXvMAuum64Cgb2EwT0BcjAVt3bRMO3Y/ExDXkdOt3eVS+ky0v7BEK/u3wQBCNxaxr7Mu320E4MovsxGHxT/VI4GbTMxirzZfBKQNSBHYaBjD/WLU39am9mkAT12IT/qCWCuMPbiPjAQ/S8APstLKJmg12I0tZIXlm6NRyePLKnOUG4LMg26rF66stnihT6GAEA0HEFdGGUcaj3/tZfz5/3oczekmaiEjDNi5MrJl+oqglGP6/oVsm3+yGNgReZRWTBGAudk2JsbmcP3tO1HvC9OTgNsGZCrE7wCheNYy1KDflmomnruibaVJexJonbUS0OxxYPYoMP0qMHMEmDsJNE/b+9uTdgxgwnZNvH5tpnvqGJLZnUvbGRlKb9HDm+BFUi6LlF0nf4FIm7HsCiKGhwmY+KV3bP3Sh79wfH0wfBG+HKD3EetaaqGQ6l2wq+QSOmq7gn1X7Z5tqRY1XNmWQmmT1aUaTIgGApjQ1cyL4LGvHcIn/udBzE7MoR6ys95FrjqEHbW3ZYFeA75kLJ/J1oszSSrfJFj1/JPH8I3PPY/7fugWhDUFEzB0nwJPtyuWX0Y8Z09YwO7fbnXt1rSz+XWM3egKvFeS5VPgsfwZ+/kWsD5XmslIRx/m3HThdeR2K9v0tXxnu0DGgI2pGa3eZ0T9LoBX1jzgn3ngjsAY9W4iuSFxwcwNJucu8kxZMtYfT0jonsTt+FZdFx4XE7VrAJWIEDcUTEOlEubhZ0/hz//wMQf2ZB0ZE591LndkFFekn5Q0+80/bMjOe6Z8R2QrNvj6Z57D1Tduw96bd1hpp6Gg5ggc6wp3yiKaASZfPDc4S+cadurX1MsvYb2xfFJ2J28aluwhQkeOYikJ3G4+O+wGnjM8jx2CsIYoBgzfYEzwntMfuvO3tnzwkfOqvZ13wBfhnQD9dSITeBnszDqBZcFmqp7maMUGrbJvnuoO7J0nDjHWCgU1AUP3h/YgBTA1PovP/p/vYGrcMvtaSKgFnLH7ondLSl4kJTHZT1cnzpKbl4rAeZoIYWp8Dg9/8UVced1WBKHNH5g6O8CvgGel0EsYkEDBhAwTsJXuCl8kaashc2TAbW2ltW6OausB8Uk5slez57+Z69xBdfXOQSfZTD7KMpbvfHkyhi8Jw4dho8SonxDhT+A8V+ycV8Aff3AfxZrfDeC2FOyVlXJst1p3AC9l90vqqE2+0MBV49Qcu+e1w4AI0P0BjKfbP/SFF/HCk8dRC6zXei1k1BK9nr05qElbvjt2QdTJ7pPdLFGHfinKAr4xgqcPvobTx6ewY/cmAIBuBFBz7UrLXwnCFDB0PYBuBJBQQbhHoZ1rsLPJQwE3Y6j5CBybdbr2Jh2YYSbnSly6ABJnu9sFyzSlvEvX3k9peSYzQ1iDmaEN3yrC7xn/1X3/ZeQDj5033e68Ar42wWUAvZ/Y9Ce2x+wNNsllvHs5Y3IPdu977XQE25WdG56FwtqRc0wtgG6E6Xt/8anj+OqnnwGJQb3GqIWMetAp5UgC8J6EkwI8vPsLC0BW/WSfawzBKGD6bBNPPvQqtl++yf79gCEhg1qV78KygV4xdF8Nui+ECdSSCqqFCBIQzGDNLr7NCMFsC6TXYX6gyPJ9v3x/XUDedqGbhXJPywW2zD6VdnIVO6pfDL1fx8EncB6HpJxvSedegnmdLcPUDuwLJmkLsXvG8pqs0i+77rF7P1l7qR/IhLivljK+5lwbX/3UM5ibso6MtYBQ82ekesyQUidYyVwUiUCS7VhFxHucvV9JUr1gnQuVIQRuDukzjx/FW3/wJtTqAYQJJmRwq9KTl/O9mlqAeLAOXQ9ysk0cG7TmI5w8MoGjh8cxM9VCFBmQs8DYtHkAV+zdjA0j/QhrQbr4xgN1mFAhnJoHR3p9fSfiWD5qrhw7BBCXbwZSeSfP8pEjmtLTM59SacdWH4oQxBgoHUOb4HYBvQ3A/1hzgD/24L4Bo/lHifUAp2Bfrt13rczxxhIuONqwVMMLHdg7dk9rR880oYKpBykjf/Gp43jxqRMIFblEra3MsR21lt37VrkWzCkDd0/escSe8uDv7mcvuWsUwRibGzh9bALHXxnHFddudbsPBSFrJVvF4sFe94WIhvtssi/5ro3gxKtn8e1vvoLvHjyCsVMzmJtuIop0it2sCLV6iA0j/bjmxm244y1X4ZqbtiOs2ePe1ANEG/sRTM1BtaL1I/GQ2+mnTD903cOmC+g7PT6BCuql7XczVnMSkRKwcaMQFYPEDIrmHx17cP+fjh44OLtmAH/swX1kTPB6kLyV2HCWrPXm1C62Mmcx7L70i+aM3SPR7oHz00m4ysEE3VdLQaE138ZX/vwZmChGf4NRC9jOSU1G5xF5Uk53jT6Vd1DwYfdGxEnalStQQlBGEBjC3EwLJ45MYvferSCClSGYAF1V6yxWwokHG9CDjfTzNkZw/NWz+Ppnn8N3vvkKzp6e8XojgJprsEu+p7gZ4fTRCZw8MoGDX3sZt961G9/7o7dix+5NYCaYUCHaOABMzkLNt9YJ6CcHbeKkWQdovrz8dVETsKxGn9f7kavYgSSgTwAba41t8Y/E8L1ah/eMPbDv86P3r/5UrPMC+Maohgj9VWYZ5mJlTrHuHlhCZU7ZDqDbq1BWt0snWWUjJy55dh8oq927t/PiU8dx9NAZNxCb06HYgWIoSurtPYAHeidp4UrVkvuTGv0kwcsEBSBgQDNBsQCR4NUXz+D2e/bYRiwmmIChoorhLwbsow390H31VMJpzUf49jcP47P/5wmcPjYJiKAessvDUI7rJMNQTNIZbQRRM8IjX34Jx187i3f/+D7cfMflzvuIEQ/3g2INbq+THEtaOxlk8q5EXXcEaZmmG2koZSyfu+wAkGFTMo+bnIWyGANDMiSa3m8QfB3A/BqRdOhqgN9GHOWMhcBZLffiGHyP+7iXY2CyooeZdr+W5Jx6mLL75nwb333kNUStGAN1zmalKkLAyCx4hTzZpkcJZtn9DvxTZu8+d8Ow1T/aykYnXhlHqxmj3he6xOHaKX9dTTCKB/ug+xrp8Tw73cQXPvYUvvaZ5zA/3bTeR7nEu8t5pQuyNxSF4byPgNgIjh4awx//1jfxwz8V4857r04JQzzUh3AiXj+JXEpknQCprUrZsVns5ylN3rrJWKU7gaSmXzxdP1M4mASxBG8VmGsAPHnJA/7YA/sDrdUPEsuVeRnHDSbvNbpwseyee2n3CeDXPMBP9IxL/+AWxdCNWsoETx6ZxPNPHEOoXINVAvgBI0i6jxdRgbNo9k+ZjGAN2CzoMwOTZ+cRJw1XRHZRqjpHu3+XzIiH+hEP9qXH8vjJaXz8fzyKJ771CkQb1ENOF27lFm/yd8YJw3dj9owItLFSGxsg0sDkmRn86e8+hMHhBq6/bSeICbpRAw30IZyaWR9J3CR5S4FrxmJY7+MFWH4Pmaerx44gV0FIuS5cDYqDK8UEPzj24B3PjB54dFUbsVbdPMaYwNookAnYW9lAneyeKP8BL7nuviveuwQNQm91SGDq0r6IUhDPPveZx17D3HQTYSrnsPXK8dww8x45ye/cJbmffC+dXve7uTPuduK6qZjQbkaYODObA7RsZ1VdchcC9EADerAvPT7Pnp7B//29h/Htb7wMEoNGjdMEfD2pvEoXdfs9h4rS5HzuuntMzfknTY3P4aO//wiOHh5PF2Q90ICph+vm887sFmq9XXJLMahTYehaPJKSVWeslrNNNiAWBeCHjFGXX/IMX0D3CLC32FWb6vclH2Ae+LMPrntX7ULsPmm24IymrhHfXlMLLJDClmK+8vxpwBiESiFwJ7xSjnUn7L5jA0uenCNeNU5B3kFZB66t3mEGWMQtAvan0QZTYz7gUyoRVVH8HkPEgwPpdzk73cKXPvFdPP3oaxlwpyW1yCVri8w1nWubmjcKtCshJMfzRAyOvjyOr/7Fs3jfT92FRl8IUQrxYD/CVmvtf0epMZqyMJjq+KYH6GcdtKX2LV1YfudMXMmpHMQGxgR7xfA9AF6+ZAF/7IH99VjzDxPJUA7skwQIlZdiln94y2T3IMfslbdEy5qRFkwjGyI9fnIaRw+dQRhQyuSsdp9t/5MGq6RYoVTeWej+EnlHxJZoKpbUajmODSbPzuWTZWvos19JWS4eHoIE1v8obmt8/qNP4OufeRYMQT2Xh8nM7rK5Bf73g7RZSJJcjVBqdkfJzhAEEwkOfvVl3HD7Ltz+hj0AAF2vQ9VCqGYTax/xyWP5IUCt7sdmEbhlYY+dPI55s2+ZICxgFkhChEmGxfAPjz14x/8dPfBo85ID/LEH90Hr4DYA9zIbzk+AyQ8mX8w0q25NWbRQx2EyNCH1W8aaccWUMIDx5JyjL4+hORdhqI8zgFBZgi89zBNAKAN4eICxhAVAIFAMaEoYPrLRcbmTzFSAnxNVGXpgALpeSz/7Jx56BV/79LOAsZp9PcyYfcCU2WH4eZbc95Ivq2WxVu1IHE4pY/nN2Ra+8ImncM1N2+18YibogT6o5vw6acjytHwolDZhFVl+WR2+r9WnmNVlQHriLJAkbtnAsCEj6l6tg1vHHtz38OiBxy4tDV+EFYTvBTBarLvv0ONRLs9QkcEvxTMnDd9cn7CWRhiKUlZLcUDx0tMnLCjk/O3zNgrZkJNMEiDvPvLu547fw/2+cL+rMSbfLx9UvhhXak5+hxYGiAf6U+YydnIaX/rEUzBRjHpAKbu3kg5DKbaSDmffC3X7XrzvR3FWqRV41tiKgSMvjeG1l86k+G7qdZggWCffgJN8E1lnAc+KTrmZOsrJuyoVKMjWafLW5TWBURG+V0St2pySYBUBf1BA72U2RGSsfthFwuk9uxaFVubFavdA3iyfC4izNurvE803jgxOHJmEciez4kTKQZp49ZkglTRYFdm/EKVe96kaQ5KlQFJ2DzDES+hKjggVXjXWRLPbCrH7eGgQEtoeilYzwtc+/QyOvTxmk7MBp0lZ5SXYEyU++14knbXRy/iOJJ16DhGGFgNjGM1WjEe+fAjX3LwDYU1BlIJp1MBRa41/AalPiFMBXENmj2qdxXTbdrNbSG0aWDrAnslA2JDR/ENC/NsAJi81wH8LgJs6u2qLCVsqZe+lpZhYKrtHiXa/VoaccAoUAHDm2CRmJuYtyCeJPQ/ss9K9LiWWBYmGfJO0XFcuefKPZKzQJP+P9FiIpdLwvdD1Pui+/vSjefaxI3j0yy8hUD7Y28qbZOJYdn6VL8zotjB79xMERgGBM7sLDeGFp47j5JEJXHbVqPXvaTQgszOgddEZnaCxk35F9+aQxbJMLM5uIVlbOoedJzq+AYhvFKF7AXzikpF0xh7Y3xDD9xDJhnxXbUkHmi/hgBbIfJc/b+EvkjtB51IvxwQg3rZ7cnwWrfm2k29cYs/Xegvb0p4STeF+InKSTaeMkN3fuTkrLSORqgQzK8McSCW52ZkmvvWXz6M913bs3oJ+2aCa/GePju+NOJlRnH+OXz4bJBKP2w3OTMzj1ZfOeFJTYtWx1r8LDydIIXPQ7aXjlysR5Ek3HY4ByD8vm9md1OM70IdsMEa9fuzBO/ouGcDXJtwJku8ncnKOl6gtet4vbthJQc4BFsnuKRtwQp5b2JoADMkB/vRUC+1WnNbL5wBgAU0y1fa71d9791PX+/05t5ZRqoCxcbQ/+7+MduypAnxTq8E0snP6padO4NAzJ23DXMAIQ5d4D7w8TNnnXuypSBaGRONP7vP6JpSX30mAX2uNw8+dRmveWQwoBanV1g/gE3v5vkXASlfZuYykUhcpO/HYsfjIyoBYiAjfr+NgxyUj6RDkbQBdyUq7N+GSEr7nvQ9EpR9gDy2faXF+4GndvSdwrhE5QThM9XutDabPzgHigfYiwL5XUmop8g/IVeO43gZxwr4KGMMjAz4TAJmqSgfE0P0DSHJzrWaEr3/mWZAxqNWSqWRJDwXlphcuuzMaSDujySmbgbJSnDICRYTDz53CzFQztcIwYQ1qXXxXktVbphKwXgTLR48BKVig2ETSvCaxgFlDmMAqhjbhlSC8HcChi57hjz24PxTht4BlMN9cIIvzzUH5CplbGZf09jpHv60Nhp8dUTrSmDo7lzLxZMu/xA9rwR1AL/mHkDVhJQNRwnqA4RGf4ccO7Nc3u5dAwfRln8trL57B8cPjtn/CnzecSjldKqM6vhdvN+Zdyu5PbTBcj4ZiwvRUE/Nz7fSLlzDMsvVrneWTp4fRIk6abvlHoHeBSRHjvLymh5eDYtRbxh7cH170DF8M7wZwD5NhK+eUeN6jJOnaLVmLBfT8xSzDaTLL4JwR8KJh+NmBGccG0+Nz+XJLLO64XQn2b5LhKC4pLiIwBhgYrCMIVXJggOKoYvcuWWsCey63mzG++8iraM+3MdBQnh3GAuwehb6IQtUVeVVXpbbXsKZqKegrIG7FOH74LC67ctQ+Tim7I1gPoykFJdR8YYSREpbfldAmdKiQ9M2BPQmIDAupe4xRVwB4cSXf5ooC/tgD+6G1uhWEq3K6fXrpptMvIlm74HDyHpJOB7NfA+HJWmIE7VaUkZRcDfzqLXBUTLYnow4F0EawZccwanXl2L2Aoi6DJtZRCCuY/v40WXv29Aye+/bR1BfHdzfl4qCaJXQ+L2h8BwIrQImk7qaxNjh1dCL3Wq26sda/M89fRxYJ+MUqnII8Lb2atHLFJ5lFfK4m36grjQluHXvwjhdHDzx6cQK+MYoBvJdIVL4EUzLxqGtTQrf7qVwGWvQa7J0dtIaYSq8uSDrfL0XSizF2UIcRYMeeEdRSn34Nbrew7juvlIKpNdKbLz51DNNn51LN3u+OZsozSZKFR0+iy9yC9P5EdmOBEtsZrZz3EWKDqQmvq5/ZlXyuk+8s9dfxyrgXgJdOt8x8A0p6P4qP9b128nq+I8oKIj+ktfrYSrKkFQV8IrPRSHArU+xqSu2lyO67gXxXOcfPdi/+1XQ+fk21iktPsiLn8VWIZJ7r2ghiIwhqClt3boByPv0URYCO1/1MW1Orp9VVUSvGKy+cgYk1wj6VdtQm2r1v6uqgO8WkVNZJmrAS9o8ucwu83QG5P2IruiSr7AHQbsd5hk+0zr4zWt7DySsELNbc9zJUK8o6VtIBkYE2wc2BijcCGL84Gb6oNxKZvfkmq0RZkUJZDhZR3kTlE7CWBfhrw/++G+CnDokJLIh/z+pRfuu5boFeawv2sRYMbujHjis2ZWSxNWeTtutc0jF9AymbmRyfxWsvnPLsjBlBkJndJVQ+BWmvgYoWMr5Db/kHImBxltks6W4iauuCZifr5DszJdixMMNPPydfuil66njgT/5GInkei7VXLha5GNlrjHoTVrAJa8UA/8wD++tG823EMpAlHxI7BelaZ9+R6UbJIoDlyDnIyzkwOA/2/+cR703KvIiAIFAwqbSSLQDnQ1lKpJzYCOJYEMWCy3YMY8PmwfRB3JoDzDqfZ8sME9bT4/LsqRlMT8yjkVofJ1UzicRPhS7nziRsMl5ASobP+9YXOfkHABv7/2gH9lmyn8q+4HWg5UjGmJZIkMqHoHiqBEn54pAjswIp6viQQTHqtjMP7P/M5vsProjPxYoBvjHBCEjeCRKyiYj8RCsqKb/sKLUsJmTLmheWvTVbQwlbAKSj9ERUgcLQpv6UbScgbK0PaNUIfvL/JFKO1pbdx0Zw7W27UisA0jGo3cR61+8lCCBBVmn3yvOnACMIapxrhlKKMwaPLqMnnZgjOeDJj55MwciTf9K/wzbPQoXKrs5jRdbB93YO769AQnM1+UAXq+T8QmG9dyglx5msIxDge40JfwfA8YtN0tkrQlcr0h2VOX6xTM5VDp3sfjEumkv+HpNOkzW0NfUBP6wpbNo6ZJOlRmBEUuBfbXav3f8Za0GkBe1Y0DdQx9U3bU+/L27PW4a/zvV7UUGuO/r4qxOuJj7rpFWeC+aiRksW7vf9deCxf99fx0o+SV2+lA9S8U8iWS+Sjlke+FN35o7F+uQnoF+oyTdxeBWRufaiA3wC3k4ko0WjtNKyJKBH2SW6V+cs65vwkX8NAY6OQUbb7bliDG20o/FslUxWKSOyOiq+Lb90Uo4D+yi2wH/N3q0Y3TaUPpLnpqr6e5Bl92RlxXYrxsT4XNoEldpTFHayi+p8LpRgUqkzqmuM83on2HhW1siY/vpj+OeODR2yjnSWa5Y+1ie1OcxMDdVGIPR2AF9eEVVxJf7I2AP7GyJ8A0hqSRLC1+6J/G62kjdaJufkPqTlyBIF74Y1d3wKKG6nN/sHaghCZaUVB/YJ6K/G+eona2Mn5bRjAQUK1922My3HJB2D56ax7oOsIVkSU+OzmJ9uZo6mnjnaQsDS0WHLS5hdkPxEfiZCQrbq9cxLhoy27KGKxck6Ram6K7GlzgWdO4HfKSQ1Eb5+pczUVgTwjagrQHI3sRB1gH0J5paVXXZsc7D4qVaLFdjW0jFmDKg9n97edtkG9G9oINaSgb6bOCUrLKWIW0wSzd5KOQbtyGDHFSO4fl82i5nnZ8BRswIFIkiQjaOcPjuP+ZlWNljed8JcAqtclPEdF+733E2z79RuDeoNr5t/XfoeyfKhBtTD1ZcWMFgrNqmmWj6B5PXG8BUXDeCL8B6Adib1o35JJsqGnhQZfTfNHucq6azl49KA281UFx/dNozRbUOWbccWjLUR6CSRu5Jqp0habx/FgnZkL4YIr3vTVdi4eSBl92rmbMUSkwNZZQpqqxkjjrTnQnruVhiLWgA8N9WcaCMAK8LIloGCbLgevztZ9uff1c23WI9SxMKE4Xd03QoA2mFMcPEAPkHeRiRBh40CpPv2JvehUCeTL9n+VFH43NtNV9tuP6vdV42mjDvWtkxSm5VN4JqkyUoDcWxlnHZs0IoMtuzcgL237QS5om5qzYHnZ6ovKgFVD/DjWMNok84sIFp5VtPN+M5fXNL+DbG5oM3bh71dZNx7GMiaBvolnjBlzB7UvdcI5eXoJQwfIAmIzNsvCsAff3AfC2gfkaF0RUp0fC6sYiUfDi3A7pfcYLveAD9qu8+RcP2+y8ABI4oFUWwQuySqdpU75wr6SV4g1oK2Nmg5oG+2DWIhvPH7bsiStcYgmDrj8gwXyuf8IgvOTjet7bYr5zaaupyuiqKUm2kMb0yiiD0+gjDAll0bsufEEUivI4YvPtDTOXzQWFqhSnqfb69g/PGHJML7x3913znPuj1nwBehqwBcmTRbwUs4dJVr0I3po2ti9xx4FdZqlQEZDW7Opre3X74Jl101mpZHRk5j19p53CS+6OcI9pE2iCJBKxK02gatWHD1Tdtx811XpIDFzSmo2XFYX/Fel3gRF72MS/F5ZoHLBVhMzrkK7dx4bNEWY+NoP/oGannJcN30TqzA99xVpUB+ElZxSfGxzpHkYnkmgD0Oa88pzrks04i6mki25ZsGshUr90Espru22zZpOV+geK9hlS0GLhhpnJ0EhjcDzOgfamDvzTtw9NCYY/mCQAlCJVAsdjsvS1fJJAf2Vq9vxQattkEzMmgM1nHP91yH/iGXlDQaweRxQM+fo25K54Ck3baTS3neYl7Pcp5z4Y5EC/KS9mwkCf7YCLZdvhGNfgv4JOKa5dah+CZyboddLyzryv6zMs5iI5b7/Tatg6sBvHDBAH/sgf1Ka3UFsRlMtiIoVuhQj9Ww7MPpUr507prc2gxuzYFbszB9QyACbn/jlfjON1/B2VNTCAPrc26tdr2mEKZFVYNIEexjyWSclsF8y0o5b3nn9bj29l3p6qBmT0PNHF+k/ttNN6VzhMiSSgFZ7N+lBcB8oQVloed7lscdhHKViYn4rD4De4Cwc88I6n2uSkfH4PY81kd4X0LaoHkOoJ/rpO3VdVvw4CmCfc5eHgPGBFeMPbhfjR44uOzEyjkBvgFtIDLfRySUsHsu8b73ZRrqMe+xq/SzIlu0NSMy5t4faQ01MwZT7wdYYeuujbj7vr341P96DM3IuLmlxpljZQqeShKr1IPVJ7YJTsZpR4JWZDDftpdWZHDbG6/CG955PcJa4BagSQRjzwJ6ZonvZymsfQnPkZJ5motaVLrZuhZ+5haUrjplKXNM8iq+95GsPt57/RNIF/K+wTp2X705k+Rac9bddD0x+5XAix5VOskVooK02sVdM++iaYiJ3mUMfwTn4J55ToAvWjVAdBU734euXbVFwarrOUedGthKfImXnJoj3RTXwrbTXtTMGejBTTB9G6ACxu1v2INvf+NlHDs8ZodUJ2ZcBJADfZGsfK8T7LPGLW2AKDa2GieyEk6zbdBsC7bvGcU7fuQ2DAxbf3fSEdTEIXBrAhePjQUtsLbQIqhaD9Yui8jOEQAJAYmyBVcxmMl+1pDU+2hVnU09OSdl9y7Ps3XrIHbsGcl2js0523i1bvA+YfbnwO7RKc+gFwfo4Be+zQLcdZNU6kDAV4kJGhdM0iGWK0V4M8jkk7XknWELNVmhx7zHc+cyhVX7YkZ9KQH34p6/+H6sYyZF8wgmX0O7PgiwwsYtg7jvfbfij/7T1zDfjl3dNUHEAAIY8SYqGeTG6BnJAF+nlgkW8C3QW3a/5bKN+MG/dSe27NyQvmY19SqCqSMXWbOOnOP9xYf4lmULST7ZgUwSguImAPt5hTUFVmw/b3OeTCkFqfWGNhm7j7Tgmhu3p7s00vE68z4qO8eWzy+oQz3s4rOD/ICU3N9IHAo8N02ARpj0VQCOXRDAB7CfyGz0Rxl2sPxi91mO5NMCk91XAvBXaNVeNSDywd0UDjyTA/aO3yFDC55+BWpgBHpoJ4gIN95xOd78ruvxlU89jbmWBWBtGNoANeMGbXhNOWVSThxnXbS2/NKC/mVXb8YP/Z27cfnVm9MnqbmTCMaeA0y8DsBhoetlh6IBRVlFVf9AiFo9gIlju5vynU5XiZr4DXOxW8ijWFDvq+HGOy6HCtywmnYT5FV/rR/AXymGn5dleip9yfJAvnumPxwlY/lEZqMAdwD42nkH/LEHX0c65iuIpa8I9rl8a9EIqucbX0E1xx7iFyHLlxKQN50LlBjYckIp/K5MZxSQjhGcfRGmbxMk6EMQKtz7npvQnGvj4S++iLmWcaWZluHHyg7aSAHfk5m1ZLYJbddJ24oMIgPsvnYLfuhv341de0ad3ivg+TEEp592DLaKbt87RXPprQ2jA+gf7sP06anUcdTurAhqFQ5T8dh9UlrbdpVcu68Zwfbd3rCa+SmQxEuQv9YI2It/jp2rktg5QCU1tcNC0o54DN/lQ+1a3CdGXTH2q/to9AOPLetFLp/hCw2BcCWRcPoikb3IBd9UyRunFZV1PDClC83wu4F8ctHe7/QiAL48eH4cwdmXEI9cC1E1DG7ow/e+fx8A4KEvvIC5lna+9ZzNTmWk3Z6Jxpv420dx4pEjoFDh9tdfgft++FZsvWyj93+eRXj6KXBzssL0noeAAUUzKekY2tiPgQ0NTJycdHq6lVkCkdTzfqXZvRGf3duLKMYtd+/OyjF1bPsnUsDvYGZYuBT1EgP8jnPvXME+HVbWJb2Tsfqe+n4O9A2IhIVoD4SGASzrhAuW/zGprURyc26yFUu5c5y/xFGP4yj3gawUw3eNN6KdJR2fx4O0wB78g0p0/rXlWP4iteUSUFFnX4awQrxpL8ABBjc08J6/eSc27xjG1z79LMZPzaAVxXacXgr4GcNPrBOsT44BMWP7nhG87QdvxvWvuywFBohl9uGpJ8DNiQrQF4MD0RwobkGCBogJOy/fiNeeOwmts7kCxthEbjrNakXAPrHDEMROxmnHdte2fc8obtjvmd01J8Cts+54XaBNtGsZ6qWyIPhSjt+ktxJfNvI5e+TtkkvZPgqLgYMr35CSIDcbo7aed8A3Wg2DsN2vu88xdSyB1Rd+v3K2IgIgBiTwWP75kHV8oNcei/e6QEWXSE4rcJyZCMH4iwApxBuvBlih1gjxpnfdiCuv34bHv34I3/7GK5idmkerpT0flwTHBcSEoBZi91UbccvdV+DW1+/BxtGB1CMHJoaaOY7wzLOgdmV9vOjvJp4HxfMQV2hxza078a3PP592RMdGEDjQ5xU6B1JnU5MNqEmcTUkp7HvzVdjoRlGSiaCmjriSWh/cc9692XXp0kVEvMBCcLEsAlJybq6EnFOAmW5J2pKZtz4uUjKjzLOZN6DtooPh5b604Bze1OUA6kWzn9LvtpuFAhZg+yuyXdMAxfativa0NVploC+wBoncz3jFQb7jq9ERgrHnAQj0hj0QVYcKGLv3bsGO3Ztwx73X4PlvH8Wx1yYwfmoG7ZYtF2RmDG3qw+atg9h7y05cdvVmDG1ogBV7f7sNdfYlBJOHQdF8heJLAvw2qDUNNDYCIGzZsQGDww3MT80j1mwdTpVAuwHjfI4sPxlSoz0Zpx1bOwxbVrsJN9+5Oy3NpeYkeO4EIK0ybcECvxQXAc7u67UQpOc7l+wYLiDYp+fpahjFdR+CUixH78QCSRWRXI4UqBHJ5QAOnlfAJzJvBEiB8t21ebDv0lbe8capU79fOfXSfZkxQCoZ/QNAreCBgwzEc1KN5weTk23OA7joNsIzz4LnJxCPXAPT2AQQI6wH2HXlKHZdOQoAaM61EbWtXstEaAzWoRSX/j2eH4M6+xLU3JlqgtVyhdC5U9DDuwBS2Lh5AFfduB1PfONltGODWkxQShBogaJzs0x2hUFp+aWVcKyM04wMKGC89QdvTtk9TOQt4tLlMC9SVWSLgM/8y3YEUvi91So6H3/eIgF7hw0pEVs5rMciytGlZF3Nr5dJE2tKqhXBvAnAx84vwwftIRbOMftusl6X3/eUfmjlTjIL9lHGLlKCv1w9X3ow+gTc44zVX6gmJKOhpo+Bm2ehhy+HHtoFUxsEOPvaG/21TJcv0QPIRBboJw6D58/YWbpVLDt4fhwUzUFqQwjrAW66Yzee/fZRRFGUeh/FqfcRQExL9z5CNuYy9prmEmfTdgzcfPfluP51l6UynZo9DZ45sQAh8Xal6cMcK5YuWr94u4PcrkABotzvVAH8V1v28cAeMYBo5eScXry9jNX3sp4h638leRWFRWjPeZV0xh/cp+KYRpk15U3TCky/7BPoJveUfyor+AVH7sDyD8Slbi0LbD7N8Belm/PP6Hu9ZormEIy/ADV9DHpgC8zANpjaECToA1h1Pj5ugaJZm8CbPQVujoPiVoXWKyLrzEPNjSGuDQIg7LlhG3btGcHhp0+gHYhl+D7gp+MIlw72Ua6sVtKmueHRQbz5+29MfXNIt6EmXgbp9grsdKXzfC6lscrCDwX2vJTALQSC1bURNdmuf7XYfS+M69aY3U32Scvc01m3JCYYGf/VfcHIBx5bctPLsgBfhHYTYVeuHLPkzXVU6KALqwfOg1WsBtC2WSxKwFqVVO7QAmy+WFapM0bfodFfTGqCAbWnEbSngclXIEEDwjWbQFRJ5Y22W3oTWdDXFcivzq7rKPTgdkjQwOBwA3d/z3U4/Pxp633EntldcpKqxYF+0iWtNayFtavESYB+vmVQ66vhvvfdgsuv2ZweF2rqVai506tGODoWAoHHrIMC8CuPmC10bi71dUihcCKymIBVspAoDi4v0+q7WsQnpe2ZZJ4NlsIuEb4CwEvnB/BBu0CyOc/qJXv9PRusFvhgVpHp2i/YA2sKAHFbyq6rTVnbtS5U38S4eDt6y0GH2rMgzFYAfCFYfnMcPHcaevhyEBOuu20Xrr5pO57/9hEP8K3kmByNil0St3iIiu+Rg44ErQ/2mghvf89N2PeWa1wi3jXNnT10AXIyyXmU6OjKyjwJ+KfnZVKbuBA1XmixKcg40rYLjsSre852MYWUEucBKVkkrKaf6fgO+LcYQzvPG+AbozYQYbDDBnkh88Ei9V/qwrBiB5nYMk1x1Ts5lt8N8Iu19LrQJSsVklWxOAzQMdTUazAD2yEqRL0vxL3vvgmvvnAGrbkWAmWctm5AYAg5szvOJmRlE6ukxNk00ewd4LfskJrb7tmDe77nOoQ1K+NRNI9g/EVQ+0Iu/O6chDsfyZVRI1kAHOhLWpS+BCnA96MqMvtodaScDvwr0eoXrGD0Xz95SdvEUwcDRoINy3lJS554Nf7gPhLhARBq5KSR0nJM9NCw0Ev6OV/Mom3Lz2QekGaPy3zJpZVp9ZcKq6/iYtLX3MyAY+mxs+f6bXjz998ABApzLYP5lsZ8y6SGdc22rZ1PNHlraGe8mcIZm59racy1DGZbGjNNg7YGbrvnSrz7b9yB/iHnbGpiBGPPQc2evEiO34RURe788s+9pisVbbn72u5xkafBe5VxEnv3J7JNcr57zz8fxRTUezGgkgd2pBbTdGM6STAUo/rHf3XfktFyyQxfhGpM5kZym5KMrEvXRAX1APvzpOf0YBaJJNONMQi6J6SqqGK5h5+GGn8RprERpm5trd/0AzciijS+8snvYq6ZeR+lZnfO8I48CSBl925wfeJsmmj3FCi8+V3X49733IyhjX1uix7bXoqpVy/S8trEWgTZzjtX1VNk+yixnCzZlacLw/l7zzn5xrdV6IaHVHy+ZENUMl2fmPVNIvQJAEsysFo64IPqILm2o/6eSuzPer6R8yXjLBb8KzCv4vwGt6YQjL+IaOvNEFVHvRHi3vfcjPnZNr71uedgWsZJNZya3SkmEOcBP/W2jyUrwYwFYSPEve++EW/+/pvQGMgS82r6KIKzLwGXhN+9A+dUf/ebwLrJO0UL8QskvdISrlOhLj9nqeyTaeeXL7hOhGurD/hCAYCdhNyKUy7fLFLSWVNeTFVUsRRpZ/ooJKgjGr0BYIW+gRq+7/2vQ70R4JEvvYiZySZqkSAMErO7ToafAH5iiGaIcOUN2/Hmd92A6/ddhiBUKdgHE68gGHvuEnQ2LesBWIgtXgRErptwsNjxyp43fnqx72qnMRSeB0mHFQjDvptblkPqBvy9x+llD6vQvop1Fia2VTIUIBrZa0F/sI7vff8+3LDvcnzt00/j+SeOY2auDSYg4Lz3kUmqcwSo1QNsu2IYr7/vWtz6hj0YGMqGI5FuITh7CGr8BdCamVlwqUitzj6NOqtz8uDfw4ohIdbuIsLDtnZrlQEfwgpwHvipxad0vEBa5DbmovNTqqKKCwD66uyLECLojZn30Z7rt2L77o148cnjeP7J43jthdMYPzODdkunGBc2FEZH+rF77xZcdcM2XHPzDgxt7PP8jwTcmoY6+6KdRmbi6vO+UJi/EBb6uI/MEED8GbdppQ7XIUv3h1ky4DPHe0XUUDqlxR15tFjgLht6Ql0WiSqqWC94oNsIx54Dt6cRjV4HqQ2BiNA3UMctr9+DG/ZfjpnJJubn2tA6SzoqxWg0Qgxt7ENQU50LyewJBGPPg1tTlf/RhQb6Ds6/iEWhKJund8swqfg6ACdWl+GT7ACkL5dMoOLOhMqtjitEr6KK3kx/8lVQcwJ601XQA9ut/QURgtCarW3EwKIWD547YztoZ09VrP5CYz51NlXlSxel5wJBXlmmd+kDsGP1JR3QKEHqVGb8s1QsX/HB5VVUcekHt6bAp56Cqr8GPbQTZmArJOyHkN91mig2rhdGNCiaAzfPgqePg+fHnNFdVX12UTH9hQaIleFjqZO81ACMrjrgi9AGIoTIrTqdW46uWxSgS+l9hfZVVOGzfZ4fAzcnIGcPwdQGIPUNkNogJKjb80UEpFt2klZrAtyasf5HFaO/NBeCXlCYOhqkc25rIrzxPDB8NGwHhGMWyHT88hdLy3uDVVRRhTO0m4WKZoHZU9XncSmDOsq1+zIfnXL1JPdMFlB9ybvHpTN8VQeBqct0s/S1LcfjvgL+KqqoYo2Cfc5WmJb3fG/yFcNwbdUBH9Jjasgi2fty+hCqqKKKKtbkYrAoIizFp/WaPLIygD/2wL4NRObKbLVZoVWvQvwqqqhivTD9XsSXut0o7hQETHLV2IP7N64a4BMQgpK6MNe2TLKEN0kVra+iiioq8O9FeDtw0bNGJs8ugswggCXZKyxR0qEg6bJdzGrVc/tSJW2rqKKK9UzxF/kQKht7aDG4z40KWx3AN6B+AFuW/b4qYK+iiioqrF/8c0qmZaXuBsAWY6h/FRm+N1Z+BXxwKvyvoooq1hXwn3PO0ut7oqUX3fDS/zc7RXNBD52qg7aKKqqoYgUZrxQqdpbeRb10DZ/QSKdcJQkEWoH3Vi0KVVRRxboHd1oA7HNRX6qGv6QHi1ANhKGuIF+BdhVVVFHFKjN9+xQjNCig1azSsQ4eJW2+K/MuqwWjiiqqqGIl14blM3xnzef9x1L+IirgrqKKKqpYGLV7YGVqq9zt6cm0wdVk+CsK6tXCUEUVVVSxdExcBtifG+BXUUUVVVRxSXHbCvCrqKKKKtZJLB/wq0E6VVRRRRUXJmR5ELzUOvyLdKNSRRVVVHFR4/OKPTArlaElo/6SrRXE/SeyEmS/2iVUUUUVFfqfA8tfGuleprUCAULn+IakWgCqqKKKCvy73dUDImWZiLk0P3ySNoDp5IVIcRBjBdhVVFFFFasQZQRbpolMexUZvmgI2rlBtrJCQF8tFlVUUcU6ZPKLxj4pEnBEBNGrCPiZ92WHX5tUeF5FFVVUcW6LgPSGX/HI9jKKZpYK+AaATl9XL5dO/z6pFoEqqqiiAvhzcDbu/DsCvdS/tCTAZzKzAE4suxyzQvgqqqiiYvKLf06BONsfqZPZcWYzu2qALwIDUCSywm+uiiqqqKJC/YWfKq4s3ko7MazqsjqAD2AOgtPpf+yVZy4oRwmQK+CXlfksqqiiiirWxHrQRe4RECQBea8yUoROAZhbNcAnknkBn/YY/7mtWCtV4VNFFVVUcYmRfSkD9654WCh/F4IInSKS1QP8kQOPCyBRV5heZEKiNMdbAX8VVVSxxkF+SXgp0vE4EUrXC4LEIx94bPWStpblmyYEWoosXRbB4mUZH0oVVVRRxVoAekGntL2kv0Mp1AMwYNNa6stZjlvmPEA60e+tvpSvCZWlongF9FVUUcV6YveLWRx6PFcATZD5VQd8IpkSQYRkayE9XmCvN9BhBlGhfhVVVLHOsF9KtPwuakmSuHXJ24hIps4Hwz8BUFOyrcXyV7KVakSooooqqrjUWP5iJG5/QchJ5zRPwInVB3zBcQjN5+pBpfBavDciS6nEqUC/iiqqWOvAXwTLniXqiXTurie3heYFdGzVAd9I8KoAM5LzYqbebyL3ZkqMPaua/CqqqGKNAryUqBhLhrmk3yn9ezRjdPDqUv9MsOQ3QCYmYC4B+eQF0ELgXarxS04WElQztKqooop1xviBDnk7b0EPv7sWAIHINIUQrzrDJxgNyNlip22+bKi8Uqens2bVhFVFFVWsZabfjfx2A8ZSP50Ec2WCSOulvowlAz6TxACOS271od6MftF2ChXiV1FFFWuMwfsNVAs2W5UsFF51jielH3NYvLqAD9JNCH07XWmEOrPJQO8FAN0yzxXmV1FFFWsI7Bf7mKLWLwVGnygoKfDz48R69evwAUQCfkWcS5uIN0U9B+o9KuwrSaeKKqpYT5hf1mXbk+3nZfCU3VvwFwgdBhCtOuCPHngcRHoOgraIXybU5U0sKOlI5aNTRRVVrF3EX0jpKDy+Y5EQz1LB3tkm1vOjH3hsyS9nOQwfROYsQNPwdCXvxZQz+cV04lYsv4oqqliLHL8bi88ofAlJziohU6y1+v00kZ5YzqtZLuAfhtDx1J+5UFq5cAdZ94LURT2/iiqqqOISwfqOqVVFcivdYVKQb3B1wH+M2bx83gAfkNMCnEoSColBf+mbkPxFFuu5U0UVVVSxVkC/G7gVNwClOn8G+k5GPw2SU+cN8EcPPK6JzCkBRKTwYny23+3NdtP3l2sdWkUVVVRxEYO9LGQk2YMsi0GGrUJCpM+MfuAxvZyXxOfwdp4WYZ0D+qLRT3EFK3aT9WL4FehXUUUVlzDYS1dSi+4Tn4rDTpKLSa8bQL673Je1bMAXocchpIu1+KVvqlem2n0qUjlnVlFFFWuU4Zddl15qR47522pIB/haRD223Jd0Lgz/qEBmc6uQ0KL88WWxH1IVVVRRxSUL9tKD4Zez/Zx7gdd4laooJHOAHDnvgM+sJwk4IkKAIWTeOiivye9YtaRzV+AbBlXAX0UVVVzKzH6RrL7MYyep0EmrNR3oE3BEqXhquS9t2YBPJKdF+NlilY7kWoEX3uKU2zFUaF9FFVWsDdCXbmwfPdi+wHoZCDz9niGGnyYyp8874I8eODgLyCERir360I43ki/X7P2mpWxHUEUVVVRxKeJ9Dw1/wYIVV44pOUkHGmReHj1wcGa5rys4lzdFZF4CeE4MDyeZZPvi7DsqetuX+ub7i4HnxyMA6IIZ5LskCXX+51Rll6uoooqF0L6EvEov4luwQBYQxHhE2hAAmmXWh87lpQXn+NYeF8GECA1n9fgOqIWy6Sj+7FtPt6LFJDQuCNCz2/wkrcwEp6hB0hdtPPCvgL+KKqpAB41fmMl3JmzFl3PyRTETAB47l1d1ToAvQkcBOSVCu2H8enyCT9Vz4N7hqEldTdVsVvr8gb2AAVIQKA/0OZ3EJQnQw9huCDKAaFBlBNT9GGHKXS/umvz7l/RtSb5Bj0RAJvuFf72KKs47u1+wMqf3jiDf35R02JrTAjpyLi/vnABfqXjG6OBhEbojZ9AvPdg7JD8wpbAg5J573s5ZC/ZCCoIARgIrT0EBSqUgRa7tjWBAZECiAYrB0Onv1zroCxOMYrtOM8MwQRS73ztAZ4JxQG4BnZypaucCbngZi7o7RqjgyZSBvAV/csBPRkDa2OdoA9YC1gYQSReO3M8qqjgnIlwEfllwlKHP9gWeb47Jmq6I8AhzPHvBAJ8gcyL8KIkxIsRpeaY/5zZ9I7Tgqpabauvft6os34K91oz5MYN4LoLRkdXPQKBQgQIFrhFUXwBVD8ChArGAoEFgADGS8ZJrFvSJEDVCtIbq0DUFTQQjgLG4CWMkXeyNABIDM5MxorYBAMzPaszPmfTPRW3B7FQMY5b9cjAwpFBrZHUH/YMKjT57u9HP6BtQIAJYAaQAZgIRoNg+XxFAxoCNgNwi4C8IpA04NtliUNl+VLEYhl9sOCqAv5Q0oqY3DQGmQ8oBhIwYeoQDc+EAf+TAY+bMh+58TaCmRWhDfhsipUnalMHnlkPq/GCokORdte+HIFCYP2Mw+VIbEgngAAEEEBFABFLuEjCCgQDhSB/CwQBcq0GIQSAwCIzYyT5rCxna/SHmNvXj7LTg1e/OYXpCY2YyxtREjLkZg5mpGPOzBq15g+lJC+RxW2Ac644jQRxnn4kxgrgt5/QphSGBVXaEBCFBBQQCoAJCENjvbONIgFqdMLwpQKNfYcNIgIEhheFNAfoGGPWGXRwGBgM0BhiNOgFG0l0Exxb4VaTBkQa7RcHuGqoVoIousk6Cb71sFspq8gseOiIMgGZY6ddGPvCYOZeXFpzzmyPztOjgNRjeIN4WBEJOmpFOqcbJOvldQBfGv6o6vmX3cZswdzyGRAJSADFATKCAQKws6LODcBFEkzGiiUlQTaG2qYb61gaCWs2tEgBBA9BrBvRNqDC/qR9Hjsb4o/90DE8+MoM4uvDvrbXIAW+v9riv3mcBv9HP6B9QaPQzBjcobN5Ww8jWEJu3h9i8vYb+QYW+gRCNoTr6agT2F4J2jKAdZ4tAlT+ogF66GKblrheakXz93hAgnEk6hl7jUH/3XF/iOQM+kTkOksMidHPHjNsim+8h56Q8P6nqkdWWdVzpExjtGUE0YyzQK4Adk6dAgQMFUgxile46RBtIrGEijdbJeUQTLdS39aE+oqCUQAHuja8Nph+HCm0wHv7SJJ54eAY6XjuA1pq3u5Kps3m5iJjAbGUgFRCGNiiMbgsxsiXE6PYaNm8LsX13Hdt31dDXX0fY30CdgSDWUJGGasdQbbsbKCaYq1jDmN+TxUtOs5dS/zHKDzwRtqoJmcNE5vgFB/zRA4/L6Q/d/agI/YAIUyLrkKGCeZqU6vsdLN/H9+T+VWD49r9jGFFoTbQhxrF7B/YcKnAtANcCUKBAStkX4gN+O4ZuxTDNGHOHZ6Dn6+jbUQdCQIk04rtVAABfbElEQVS4133pa/qiGLEWTI5Hawrse520ogVGuyOlZXMQp4617YLAQL3OaPQr9A8yNm+v4bKrGtizt4Gtu+rYvD3Exk11KAhUpBHOR24RsAtAFWuY4Rdr7FEC/tJD0vFq7yXNibIQmYOjH3jsnE++YGVOEPo8gF8Uw31iOMsqC1kgpS7bmpzORd3LN1eL4QtBa0I0ZQCBZXSKwAGBawzVCMD1GjgMQEGQAb4xkCiGCRmkCJoA3YzRPNaEaWv0XdaHsB4iAMDkhpJdyqAvgiAkbNtVR1gjRG1Z6keNWo3BKvuVCghhjZf9tRojaLdMjjG1W2bZSeAlfRwGaM4bNOcNJsaAY6+08MRD02AGBoYDbBwNsHVXDVdd34+rb+zHtl01DG+ooz8EwrZGON+24B9XOYA1J+eUsHspdQsuqb83nhWyIVgsZYhQC+C/XImXuSKAzxQfMRK8LIZutC+aLSgauzUuLUvqaazma/6Fxq0VBHsjDN0GTDuRc2ySjwMG1xS4HkLVQ3AttIDPnAF+qEABA8n7gwBNQft0GxIbDFzRD2ooAAZMl7a0oyKNEIK779uAU8faePQrk9CxIAgZw5sUgpCxYSRAEBKGhm3ljApskjSpjBkYUghq2fdYqzP6B9jmR5YjM8WC2emsykcMMDsdI44AEcHU2RhxJGg1DaYnNVpNg9mpGM05e9togdYCHQu0hv15jrsXY4DpiRjTEzGOHGri8a9PIwgJW7bXsOvKOvZc24frbhvAzt19GBgA+oxG2IwQtOIK/NcY8EtKZNG76za5LxECDIBMt4cxDEBeVio6ctEAPpEcEcOPiMgNIkRSLM8sq7GH5E3WirX6q2izYP8rV47ZAkzb6UpOw6eAwIFysk4ICkNwENh6PgAwAqNUtpgZAxgDEYGIIDobYz6YB1/RsHIQrC51qYK+amuEcxE2jdbxI393G97+3hFoLWj0KwQhgQkIagQisrcZ6XWiC3PSRZH9LoyxFUImBXdBHAnmZjSmzsaYGIsxPakxPRHj7JkIM5MaczMak+MxZtwCsRwcTmShthYcPdzE0cNNPP71KQxtCLBzTx17bx7AjfsGsOfqBgY3EGrzbYTzFvyrpO+lCfRSNv/Dcwcubcz3ytaLpZiu4lFE+BEiee2iAfzR+w/Gp3/l7idEaE4MD/gvmFKdXnIlmH5CV9LGF+qic610tY6TcwwjbhmYWKBqheocB/oUWuCnQIGYkWZumSAsGeCLBXwYA200mqcicJ9C3/YAYIGCgOjSPJFJBH0Tc7ZEcaCG/qsa6e87mpZEsnr1FsBapwc4m3w3LFyly5LPLdfslWPXSdOXawgLksYvRUAA2zntmr+skzeVgnRr3qDVNJib0WjOG8xMxjhxpI0Tr7Zw5kQbZ05EmJ3WmJ3RaM7qJUlIUVswfjrC+OkITz0yg8/+qcK2XTVce+sA9r1pGFdc2YcNG4D6nAV/Fesq2XsJSjqymKl+ZRU9juEX5Jw55viJ0QOPxhcN4LvX/HmA/pEIDSRbEiSJ20XUn3bU6Xd7/MpI0jDCMIag5+K0KoOYXFkm2cqcgJ3Mwxbs2dbbCwRMgIGAxUB0CDEaSmtIrK3k0zKYP9oEN/pBGxVYGYjbV1yKwbFB3/gcajMt6NBWLKVdrEnNujEp8F8MLFWIbKevWwSE7AKQ/N4ohiiGUWwXDMVQNUJfnbFxo0oXkJvvzI7F5ry2oH0ywpmTEV59sYmTR1o48VoLszMarXmz6BzH7JTGoal5vPzsPL70Z+O46vp+3Lh/EHe8ZRg7ttYwYDTqcy2otq5Y/8XO7ovA3m3eR0cJZgHoPSsF51xwhkCfX6mXumKATyQnROSQCO2xpUQMEZO+ISor1exirJbcSHYIKCg95/792JJMYwimbRLPNMfwrZbPyi0AnIA9Ob2ZXO7Wav0iAaSmITqAxDE4ciuzAUzLoHWyhaC/Aa4ziM0ly/ITRh+0YgSt+JJ5vaR9kbRzQUh7/tx1wwwTeBdlfyYLQ9+Awq4BhV17GumOoN0ymJ3WeO2lJl57qYkjLzdx9HALZ46384nlHgSkOWfw9GMzePG7c/j6Z85i35uGcdvdg7juxgEMxBHqs20E7bhi/Bctu5fe1Tco3wFkfUp5OwW4XCiRvAwyJy46wGfSY7EOPg7gbWKsjp+x/PIPpMM3x7dg6NjyCGgFZJ3kvzHGAX7LVhEReZJOyvbtTyS3/f+bnaQQCNgEluVrDRXFtmzTCEQT4kmN1pkYwU4FI2yXGqrO2otlQUiOsWTnxTBAO6f+ZZ5BRDAhQ4cKuhZAhwxVY/T12a7dHbvruOttG9BuGUyOxxg/FeHl5+bx3YMzOP5qC+MnI7SavTWgdsvg+KstfOp/ncZXPnUW197Sj7d8/ybccFMfRgYMGjNNqKiSei5WOcdn91Jk+0CpeVrqNOz55jhJR0Tw0SDQZ1ZOzF7BOP2hu+4Vo/6PCuPNHMRQYQRV06DAgAMBKQGcZAKGvU4EKNiEKQNQhMyo0koszrQSpOjcpvA6dh8bhXZcQ6sdYO7paaAdQzUIQR8h6FMI+mpQA33g/n6oegMUhLbxijlHy6xmryFRBN1qwzSbiGfnoefaiJsR9LyBbhlwjTF4XR/q/QaKY1e1U8Ulf54zuZ2AQhwq6HoAXVN2cWBOzy5jBGMnIxw51MTzT8zhuwdncOpYG7NTOrWe6BW1BmPvTf140/dtwh13D2BEadRnWxb4q7jwco6GNZByJrowAuen6KpuxD3GXTfw7hdITDARw8QM0w6gI3eJwzPM8Y9u+eBDX7roGL6VdczjBsHLYmgzJCvPLDZh5Zg9lbhnprJPXtZJf38OaCmp9aitooA74ciTdOB038RPx1bwJAyfsqVSbPMWlE3sirbGaiZkcMyQwMBogm4atCdiBHUFTk16Kop2ye8QjEC1bUNVmCSEFafgH9fsAgDF2LKjhi07arjpjkG844dHcfj5eTz58DReeHIOx19t9ZR+2k0r9xx+fh5P3TOMt/7ARtxwXT+G5lsI56OqnPNCs3tIF6aPjuoc6ShGQWYpn6vDZ4jQYSLz2Eq+3BUFfBGeITLfEsN3eh4QnZbJnnSTK9ukxJ62xEytYKx2Lpsam7QlmMQiNzVKs8ifgD6lWo8nJZH/l9x9nIB+AFMLwHHsrBcYHGsIA+0zMWojCswMVrLmzNWqEz9JVmvUIg3MtdMdQFwLEPeFiGsB6jVGbVuI0W0hbrtnCGdPR3jlhSYe+vwEnn9yDuOnolLWLwLMTmt843Nn8fRjM7jrbRvwve8bwe6NAfqmm8uqdqpiBaWcErk69xhf2inprhWDXMOVMQwm8y0RnlnJl6xW8o/90ju2iYhqAfTXiCQgNiAlttuUAWKv3j0BUSpeRwqwndfzj12upKMNIzIKel6gxyMQC1RI1gK5xlA1W3/PtRo4CEBKgYjz4J8Ypfm7gKQ6RYxrPDPOK9gmcKmhoPoZzAIiVLLOWt8BCMBaELQ1anNt1ObbCJox2AiEAFaM/uEAO6+oY/+bh3HznUPYdlkNc9O2LLRbI1hzzuDQM3N48Zl57LppCJu21RDOx9XxdCHkHMCbToX0fIdXfZOzTXCPT5m+BoxhSGyLPUwcwMQBxKg2CPeroH3ow58/vmIveUUB/8NfOI5ffPuOWITfCcJ2ZrGVKSzu4gOkk0i4AOxcAHn2Husz8GUe3UYI2ihEOoCeF5izbTABHBJUnRzYB+AwTC9IKnVcLXe24GSgL+kRYCDiGrG0AbQ9EkTbhwdDgTVYI7kwTUlVXFgJKNIImjFqc22oWFtF05X+bhgNcOX1/bj1riGMbA2t1fSEhtblwD8xFmHjaIC9+4ZQb8eVT88FYfiSA/XMD8fJOaZkB2Ayti+GIJpgNEM0w8QKWitA+LsqiP/T5gOPTl20kg4AEOtjMMHDMHSzGFI222xcwsIBeEnTQb5ss1PXXwnLZH8nZdzQjkSmye8mbGWOaxlFMrGJfFknUaUIgCFXuqlAQQAOFCRU4IBhAgLFBCiBnjGImoKgRlBCns9OFeuL+QsoFtSnW6jNtqFDhfZADVF/DQgUtuys4Z0/shl3vXUDHvvaFL78ybN49cX53DwBwALL/KxBDIIO1SVTLrsW5RzpZRlTfDzyz0vLMF2zFQxrAA8Tx8dW+mXzSv/B0QOPaSLzSRE6awxnY7qSRKlBp6tct7JNf6Us60pbzhYs/ZABEwnESJ61e9JRAvCp/OJLSek64AakkKvZVwwKrNkaO9BPLJdFC/RUDK05tUCtomL9QStG//gcBk9OY2BsFkErhiLByNYQ7/jhUfzTf3MFfvwf7cDlVzdyA18a/YzLr24gDBnVdvECyDmyMIZlwN7ZbJXV22dgb2yydoJY/9noBx5b8TKsYFU+C8LjAJ4T4c3GMMgZ+WcZ6bKhKL1XwpVJ3lLG7pMFxYG2n58tA/au/5dbDJJZrsTWSpkDBRNYgzVWBMN2/GE8baC3ACYgMCqGX4Wnr0YaKrZumu2BOtoDNeiawsjWEPe9bxQ3vG4QX/30OF54ag5xW7DvTcPY/+ZhqzRWcs6FY/hdlIiurF/yw06gXU9QwvAJzwN4fDVe9qoAvqL4ZGzqfwHD94hmFradimIMwJKv1pGCt07Oe4dKmrOQH5KyHNAXgnMB8J5OOXmHEmpfcn+pTpRKQWyTvMr57wRsvXmUzWFIS0O3BbpGUEyQStaponA8cWzQmJpHbbaN1lAdrcE6goCx+5oGfvTvbcfMpK3f37ApQFhnmxeoavLPM7svyjmS4lhZaWYnqc07YoqxGr4YNgJ8Kgjik6vx0nk1/ujo/QfbzPEXReik5Md0pQN6y7Qv6eU/UaxnPcetWFqHD5SWXKKYXPbYfEfelrwSTpfgtaDPTtJh10BGkEgQzwm0sUPAq+rMKroDv0bf2TkMnppGfboFMoJand3oxRrCOtvFYXIeXAH+eWb30oPlS65Cp6wOXzz93oK9sn1LoJNKRV8aPfBo+5Jh+Halo8cAeUIM70jHdKWWn9LdIK2bg2bxccYbhUVL/66MEehIQKaEwFMJhS92fLnELfmYXQB9VgqG2bNrsE+QOQ2tA2vYxVTV5FfR+yRtxVDRLMJmhNZg3ZrXAQhaEWoz1lmzigvJ7rtcB7o4/8JaziQE2GSSjsPMg6t2LK3WH2bWLaP5EyL8TjFMySQsMmTbiTkZ+ypZXeMiHDTz5mtLB/vcdSlVfHIvgsruKqnWya0JruMSKmH3iS+Pfat6ztgvOO8YXUUVXYOMoDbTQjAfWQdQwM7LrVw0LwC778LoS4abCKRjobBJ2oINsq3OESLzCVZxa9VwebX+8Ob7HzVg83kRvGx08qYo7SpLTdWKH1CPxoXiNkqWMxy6mC33vkkqe2zxP6DOBYLSKwVZJ6naUZwzZJPI7i6M60KuoopFn7Da2ORuVFkmXzCwd7X3pex+Ifxy5em+hUKq4QOHifTnN9//6Kpl4Hk1Px/F8UuAfFmEdeYPwd5k9vIVMg/IUtguOS3fYMle+ZS1R7npNL0nDROVWNt1/+PuRwb8GehTZr3M9qAwLQPtlatWUUUVl4Kcs/hSzKJ/WDFZm0g5Dhc1wXxZqfilVSUMq/nHRw8cjInkYyI0lTF83+8ZC5gKoafOv1SW740NRs+n+aPK/Ed1Mzwr1uYTLLIn1sqUaPjuMUbsaMXMeaGKKqq4JNh9L54onb73JQ1aUpxspRliaIpIPjZ64OCqds/xan9ORPIwgEeMp1WlhmqGFlgNvZKnXvX4i2T5OXne13T8+vtSsW5hmT1f3pnU9Wd++qnFc2KZ2zLQ+hyayKqooooLxu7FlEs7vadcUUdXrWhOBp08QmQeWu23seqArzg6BZiPi+GmMQzR5BIUVOimRU+9vkPW8U2JlqTll3V7Fdn9MleUFPk9qp/YLqcLgLseGxgNK+tUWdsqqrh02H0XvJJcKWYhV2gyf/yclGMYxlATkI+rIDp1yQP+yIHHDLP5DIBDiYafn4blJW/LZj12Y/lAp46/GJafJll7yTOFgtlOTWjhLQSVyz3pJZKU4UtHArmKKqq4qDC/o+RScmJBVxvkks5ai32ZlQJALxPrz4x84LFVb5fm8/FhEeQ1IvkzMSwJw89V7PRKehQtRhdaURe5ZJMvIxW/2RwKF817ui8UlAN7u5Mgd9syfEmZvkSAia2OX4F9FVVcxOzeoLusXHJfqe9XMVmbOGQaBpP+JJG8dj7eznkB/M0ffKQNyB+J0DFjlKfjZ/WoWbkSOrZCRZbfPdmLJSRw3bjFsiYreHuwxYB94T4quL9RIiMlds8MGC3QMTIdv4oqqrgoAb/T+Ew65Ggpyjye8SP8ASeaEgsFK20DxwD5oy0ffLh9Pt4On6/PjVk/D8HXxLDxGw56lmguZKKG5dXlp+S91Fff/jERcU0TZnEriWT7PnFbF0qPCuOGlxcGaGmTNV9VUUUVFx+7X/AiXTGpG7v3mq0MRL6mgvi584bD5+s/Gj1wsAmSPxKhiVy1ju+vgxLWDilP5hqUa/gLYHNqjayRGqh1lll5D5Lk0u0/KPF0Fg1IDDGxN8kYBftlADrz1KlAv4oqLnJ2bxZg913Ky3Ps3un2RiuI0CRI/mj0wKPzaw7wAYDIfBWCzxmtJJnw4mpQM1wsJjm8LZIsVLFjerN866EDaAPE2vfm7/iWQSlwG+SSDR6T9yYYeCn42F5MnF1PpB3njJnKSFpgzAI9AVVUUcWlwe696Ve+531uVm2KeSwi+Byx+er5fFvnGfD1BIBPGsOTRisY7dqKNbva1IVdNLvW5ZuSL6oE8LUBotgCfqmFeLotc4BvYojE7rpj+yguAg7sjQ/2LisrhZXFM2lzkxCrWvwqqrjY2b2nNiyF3Se4lmr3Wll2b3iKSD7JrM+uWcAfPfC4gORzAB61ko7KMfxuLL/rUOAlVOxYsCfEmhDFhHYExKXGZXkdXhyAp6Cfsn6dSjcW5CNA2oBpA6YFaK8MB57jWzrwHJBYUsCvavGrqOIiZPemJCHbjd3LAuw+9c1REOBRIvns6AceO69ULzjfnyWzPm0M/ZYRfgNp7idO9HwByEAMrI1wx6xbsU6bnLdOzh4jEKHU7liQ754Vsay+HQGttr2Ehaan9PGpTBODDIHE9QyQAaDc0BZCUbcXE1ug1xFgIojREOgcuyfv/0l2HMZUDL+KKi5Wdm/zhT0qBA0K/l4eu9fw2L0bVG5ojsj8FnN8+rzj7/n+D0cPHDRE+ksQPGLr8pNVjzpKMbuuomaR+ponu2sDxHEG+O0I2VDooq2Cq6MX0RCJISayrD1h76YFmKZj8k13vend13YJW53rqip67Sc5BSN5d4kqqqjiQoI9SvOGpcOYTCb1LMjuNUOMEgAHmeMvjh44eN7nUvKF+Ew33//oGJF81Ihnt6A9Lb/LRCx06b6VblOxPAKujZVyEnbfbotN3Bbdj71u2TRxayIH9s08wOv57Hc6AfvISjzQICTJ2nKvHuPV4VdgX0UVF4mUY8orA6VL3lA6LJATvxxkfjk6s1Egkv+7+f5Hxy7EWwwu3Kdr/hiifsAY9Q42howRkDEQTQCLGxsoufm1uSlYxvuW/AEqHSuxLXuMIqDZBuZbQLNlr4vADhcv2B4kXbGAyTpyxQA68TcuHCF+pY5kzxMnGHVgufuliQVinI5faTqXHDbkr+S/3yojc4mye7NIUpnWa0gpwbRc0SZrE3ZvtBIA3yDSf3yh3uIFA3xmc8oY/kMxdKfRvJGYYYitfq/J2hJ4WnfHxCv/urFrQDJBS5xbZfKFaG2TtPNNoNkkNFuW4Q+wQCmxFsYJlueYuLevE+NeDHlzDfOdYZTuMCQP7qVjszINv6rSuUjO95JEvw/sfl8NFpDg0ua6ws/ifOQqLjJ238uZ16DQ/1NWltm1DBMiNElk/pBZn7xQb/OCAf7ogYNy+kN3fRagR8XwO7JmLOPGIALCnueNFKyUhcrLMlW2ypL7dRQBrZTZC1ptABrYXNNQnLlZpg1RyIM++Wc3oYvTQo+B6F2AP9XwKz+dCwbsInm37PTw8i7Gm8xmvM5wUzwOyAN7B+jMlrhwNgwtd5uoKCVWccHYfTcLhQUk4052Tym7T0DfGAUABwnyF6MHDl6wsz24kJ8xsz6pNf2mMXw3aR4CJaMB3dlkKJ06JRAQUReW71XsGFhJSAjGALGxmv18E5hvimX4bcFGZTBIBhwQWAGkMoaf2Rn/v+29aZBlyXUe9p3Me99SVb1MV/XMACAgQDQ1Y9CmBJqAQJsRtETJDDnscDhM/7BpyBSFYEjhH7IhRZie7oZEACIlkZCgITgeM2CAlEiRADcBJESZBLhA2DjdM1hJ9AAYDDCDmcEs3T3dXctbbp7jH5l5b2bevK+Wru6pqr4Zcfut9fq9u3z55XfO+U4C+tglE6cM5ocMn4DKhKmZPeu7GeAeAXoA4v62Dpxzs+LyPYf9sfGv13/H8QQRgrYHdKUApQjKtjeGUkChBFrbx1r799jH8TnXj1s2OCnwDJh8dH9R0RUn7N7UMg6cf9h1Aj+gdPXsS/lTX1LAXz3zML/wju/+/5gHHxXW/50wkxgN1gJlLDMSr6cHrD0/ASRpmixgkNXuJ8DmlmBri7A1EZg5YW0sKBRAhdvCFoSU2XYzqM3sw6Ctv88AqnkD+j3i3zhrl5CpcwDo7r5xjhnGgbsxFtyb+02qLCcrsHByyBX3KeQA3wG6BpQGtCZoDRQFUBaCsvD3gUI3E0MP/C+BlLPDPPsWu/cpm6Zh99bvXvuArQDyh6qY//uXIjPnwAA+AKydfWTz+bf95V9gpv8SRp8kJSCjICQQNgA7EE6lHAQyDrX1NoHNu5/OLOBvTVzAdgYMhXFCs2X2AdDXTUqyWTV7AP1at82GbsEMzOZSV/4y9yzvRgC+BvYAzOtb01hqVK5ouqqflwjwa9B3bq6agILE5hKwlQO1CIaFVRALZ5mhwvq6QNoT7Y63AioiGA1UQ2A6IOgCGAyA4QAYlA34e+Dvx62QcrCtlNOVHh6lYUog5YROAkLXiPh9a2cubL7UP7c4CPuclPmocPFBYf2/iGHNSoGIIUrZzB0OWH4YqFXiiqI8OW7+tdq9YGtK2NwSbDp2P5sCr1xmFApWzikQSzoqBeu8PNMJ8gFLJwQ1WhR/NmCZvf1+wHhoL/YhLBvsQX8xwEeM3YG1B/DKWPsMf7+q7OZrMSoTTwjMFriVO3EGJDhRAKUwqAIKAQotzeHzc3eFhcHXOq4/b8BkKNYmWxTAioAxMBkRZkuEwcgC/8iBv3bA34+bJ+Xk2T1alf0iGZknsUO2mn0SrDXaQPBBpauPHoSffCAAXxGvC+TnhNUbmfU9ZBhMGqQsqIMlqoIVoaZLYSZtU5gwZxuo3doCNreArS3BZAKUAO7QYgE+3EKWn2br7AZ8qQGEEOzDzyY3k0wNsDEVXBsSisI+z2N70WvdBPZuZ+09AniOGXsN5g7gq6rxSfIgbxm9oHIuFwS79FYAVgrBQABtgJEWDF3feQhAlTsP/OSrUKM7YQfnRdgEA4gCfj7WRJUA1wB1XSAjwvQ4Yb5MMGM7mQ3dFdqD/s2TciTIuRdfURuBukQAnw3strR73dwKPUbKvFspvt4DvhunzjyCF97+hi8K5P3C6qywVjY/PczYCVrRJkswStyJDWxmztYU2JwINp2kM50CLxsDo8Kye/LsXlnQh6Y4YEvYdfpcLd5EOf0WMOpJxU0yYGBj02q5RPa7V4aw5Jhe6b7f7QD8nsFzAvAcyDBVCOqVlcLmVQfYu1sRYKyBEoJCgBNDYKgF2gAFueNfIIizUHzs09gLYiJAIainMkEkGVCw/JcoX5sEkC0BzW18aQtkpUXEGT392G8pZ7usnG0CtaH9cej+67JyWBSD5P1E/MVT9z2CHvBDLf/cQ1vPv/0N72Eu/lsY/TrbIcpaCisSCHGdsVMXW9UaflOMxQRULJhMCRtbgo1Ny/A3J5bZ3Tly+mgo5RQBy++42Pek37ule8Tu3f+nC2BtBDxxjfHiNYCNDTBPZ8DyErA8BkZDwmDQaLqk2pk+h57FB9kyddDUAHPHyueVnbxn8+b+3IP9PAZ5YaB0WvtKQThRCgoGhgVQKqeoOfSk0k3CwQqsBnVFUYpuc05QTOxrCY8C0G8YI/u6EImZoqgmo0yMe52sRKSvCOYa2PLB3sIGeXUP+PsL9mk/jayks02gluH8cpqWhabSYLcJq89rPXvP6XMPbR2Un14cpONw+txDTz73E2+8n41+gIAxSEDKbqJsJouqM3bEXrx19o5AFLlAKLA1FQv0W5blTybAHUPCcc/uUzknZOIB2BOwpyydJsPI3WoCOSlJaUCVwMoQeM0x4Isv2IbmswqYzgSbE8LWGFgaA+MRMBr6gB41qXx7WH0chFU0JGbxjTxjQdx6HNnb2ax5rgF8+xw7Tzpi4FgJLBfASIDlAVASoETcsQyK6iLJjtrHmprAjX8PwU0AIcUngKIKurCRjjjmLtBiK6nFiItDAUKBXuw/zDN+BcAAxTVgPgZmBTAoBYOC6nOpH/twEoZ9aDlobBKlYUqSnimxhu/M0eretEZZoDcaxhRg1luKzP2nzz30xEH6+cVBOx5KmQ8bVh9jVn+djFKiFERbfYxYILXlQjsfX9zyfzKVWrvfdPn3sxlw+iRQFhRn5rSydLC3VMwW64vZo2f3SgNcWMAXBu5eAa5NgK9fY1RVw/InU2BpEoI+YTgQDEqgLMkGncMUvgMK/pEWH2jwXlufzxsGP5tLDe7+cc3iK8v4BwpY1oQBgJNjYAygCPPYFcUSWiSnUc3gY+D3mVl+GWAlFft8WCpLsaQjjRWrINB83ZKFDQPGzkrkH/s/5ySgH5wvYgRSWXnPB6d1D9X7p9uLbONnLztqdFIXWTGFQVoIKwHkPyhlfueg7YIDB/hr584//9zb3vhOEfUfs9GvIsVQRkEcyw8tF0IbBWHAiGA6tyB/fUuwvuXy7ydWrz09VhYYcsFaRXUWDd1IDn6q47vYQw04WqDLZgk5qAjfcQcw0sBXrgguv2gzisYjYDwijIf2djQSjIb28XAIDEuXu10Chaaa9XvZ56WaAHLBVp/66CWa2Uwwq4DZzK5oaoB39+dzu9oxlWCggEIIa0PgxBJhSMCoDOSZUC4Lj18I8s46wwM46UYYV4rqHVeDvGqi69Ra7iVxh7Axhkv8t6yeoZSBEIMJkIptRpkHnChGRJb5BwolG6lrBIC+RGNfpRxJmHrGTmHbilqhuKLWF1kZBRF6ksi8c+3cQ8/3gL8Tlk/VJ1jK9wrr+8TwgA07WYdrYkVkl+w+Ss4EzA0wmQg2toCNLbHpmC7//u4VwkqZAXudLPfDlMy9/oBQCgrBRwNKqNFzYeMKAyG8RgOnxoSvXmY8tyG4MhVsbhKGQ2A0IIxGwHBAGLkJYDiwj4cDm8ddFECpfSofRWX8++3hEvYBTq0IbKBVAhbvZBgH4rOZWC8jx+ans+Z1djnuJQEvGxNGBeHYgDDUDuB1hzyTZFeRk9A8eJNW9S2Uso/dDiK31aAfgj+lkfdAtql1+aYqS5jtY+NTOhSgxObue/aeLBakaweHLqq97cb+gH0uBZN3IOWE7Va9tGPSnHvfyUrPCfxerauPH8TdcDABX/EmYN5nTPHfGNbfQ8bYi90o1yQldNNsAn7TuWDTZ+Y4Zj+ZWmD5tuPKXtPa6vcqI+fgBpl9luq7ojFSTs5xMpRyF7F2eEGKcFIB31UovDgVPHlN8NwG4/oM2CwEwy0r6QwHXt4hDAaW9Q+HVue1co8F/0I3pfs6KCpTHYS1Sx+OfGeCC8dinER9gg0Dpmr0eB9gnc0aecYz+aqy+vuAbPohEbA0JBwrrVxT1MeoLcEhk0Ibxl/gpR3twF4XoEKBbKkrSGu3OtAW7EnFLN9t5D5MwlVba3ZTADOEjGXwvpdCrCEgdl1LLB8g7cpdR2q8pNSz+33S7SObhJ0XWCFqYO4qaU1ooeBy74HPa21+QSmz2QP+DsepM4/g+be94Uki+Wlh9T42ekkZBvuMHRW7abIDmMkU2JgI1jfFMvyJYGtqdd+TA4olHM/yQxK3n34modyrmpNIFW6J4pBUxB4E1najgnDngHBqLFifKFyeMp66ypjOBVcnNlDttfxBSRi6TJ76cQkUJaGsy/VdlocGtJLa28X/TrUoOC3tQGvI4n3KpAly3W2apMBUQVvgOWDmggKEkxoYFHbiUSCU3mcGTYZManORBfykviGS4pSTarQCFYXbSpByYO9mQlJBxF7FHxT0QQOFOyPIGRWXRdbk2XPD8tmW84p/LzttXyTSk1MZQcS6cHNvs7D/7D5TRBUx/dz7cm0LW7bHCmIKCKtNIv5ngDxxUNIwDwXgA8Dptz4kL7zj9R82pvg1Yf0/c8UlkdXxpYKtxHVlj4atC+bGFrC+KVivwV4wmQpeeYfGsRE17D4F/kALjoqt6MYxXygs3HErmMIBiWODBCf3FIByPdB1RSgHwAmj8eoTGluV4NqEMWHg2kzw4pb9bbOJ1L9HaQv61p+Fap+WQlPN+LUCVKj5J1sO8D3G+cbrwoAxAnGSDblKVc2EkgVFBZABCuWCywRQ6YDTZ82UDWC3AtyUkWlU+zVQBuwpiMkUGkprUFkCRenAvrA7WisbpM1apeYCEwQCW9D2GkAdoKgglYFUFcQYSGXAlYFUbDen69cpmkGhj4g0/ZzdXDAf2dTdsrAFeWq/Vpy34+BEisnk0MeFV0jSLv0k4BqbmHZTcjEazGoOkl/TxfzDa2fPH1gRrjjIx2rt7PmN59/2l+8Xoe9iVq+zko52Ua3G837OgsnMyjlbEwuEfhMWnF62wFMXWKl2kK/VBGU/fgA1JQKUVEsq2POnNtwyjuE74OcKUC4vXQywYgjLI+0yXaxGbgDMWDCprJw1Y4ESAhkLJMoQMAOmJJjXjo1WCgtZvk89L4J0QxXqlsaev6UrStKukEhJUzhEYeGShqtQpTyoU4cMs+D5EPg7gZ7qIJCb3MlKOYUCCuWYfWGZvlIQZZcLFAZcqJFtGgnHyYjCEOOYu4kBXqrKPXYgbwykcimZBhHYR/1ykm1eCiYDwUqprDynA2/9fuwa7FsNxsP+tGE1raCdspmyf4MI7DlwxITgT5Uy96+dPb9xkHdJcdCPGRF/HlDvElb3s9EnSImdWV2NvCFgVokzRxNsTtky+5lgNhcoEF5+XEUB2jTQF1op7PvymeKsnRr4vZziZgUxFvRFORAtnAUA+xOt2XTdPg1YcgZfYfZHlCkT6vAdzdJ9UDdj8okmSh4AeLBi8VWqWfDdwe2u/q6jbwElqzIbtG0m9jofn+JovN39oUIvQdqeBGDvy36tflWDfWUgpoJUDHa3YtiBPDtJS4IOSMktS3NfgHkhuD4SlEPCeEgYDAhaUy/p7FW3z1knhMw+bWwSTgoSyz9N+mUD9lIHatU1In6XUvz5g75bDjzgr507X73wjv/sN4SL7xPWb+bKGemQQERhDlMHaje2uJZxbKMTwZ9bU1gpKcrwiIO11ErEwH4voSnR8hGDPhFZoNcAa1ekk4BDygxrxhFpjRSV9Ee3e4xB5GwFWrYTCyygW6CNALjRltFowWfFn0md3887nJGzt7S9hU3QNEcg0CAX/A/3k6AJVIh4/d0xe5Nh9oaTTWIwd6s0cHPfHlMrTXqwnynB1bFALwErS4Sx91TqNfy9g71kwD7sWpXV7ZOCLHa260FWTu1zX2kwawHJB5Sa//ra2QtVD/j7gpe0ISTvFFZvZOj/hJQQk4BZMGOyvWodwE9ngumcXUWm4GXHSwwH1GL4UbZHxiVz35A+w/RrWYL9uWU7ewlb7VkYEC0Rq48AP+mdGbGRELz2QUlsATLyYN8CeWRWTbRDhh5NONT9XmS+V/2c7y1srD5WByC03UhBwiWDZMDeuNvKQLyMY7i5rfxkIBHQI2D0nLJ6/z43GRgAW1pwtWQMR8DKksLSks3CKnp2v3/MntFhkZDR7dMCq1rKUamUI2D6UyjzMwBtHIbdcygAf/XsBVz6x6/7CnP5bhH1T9ioOwCFCgpTY2zxzsyV38/FVWUKBppwakm3UzBVh2/OnsBcukEebY2Eggphb8OiiBqWQR78qWmlywGTT7XgXIFIEHDdlykrx/a7mP92IE4LTMhS1p77vzPPtb90oGHV7S8ZQi79JZ3lKWSErnhKjANnB/zG1AVVVq7xIC917nYN5III1EOw5wD8KxJcIcaGEiyNCSvLyrL7IaEsqc/Q2TPYI+ONI61iK+lqeBJN3E2QlgN2L9YJ8yqI3631/CurBzQr51ACPgCsnvkMv/D21/8bFvxHxui/B+HBXAiziizYz8SCvREYIzAsWBkS7jqh8uyeghzvDEPdFrzrPqbKITi1T770IwLLhfpPGFFwVxQFy0xxoE6A8UFEioFfEo3eFwWB9pHmZ4A2YxPcynICda8QgG6r4cTBYG9LLnflstj0STEO4JUF/uBAi7gDyo0tgrhUStQgL3W2jTc8EyP5IKxJAN/JO76wrIJggwSXYIASWFlWOHlC4fiKqm00eilnb4c8DMpGPjmSsTwWxMVWqfWCD9BWcYGVWM+cmQjeozT/8up9j/Bh2UXFYTqeSpt1MH7OsH4dV/qvVcKoKgNTuWCK106dadUdywqDoLS+lc+d05lzCEPUgYDICMgLQCpAMCIXYKXA3ln5FYBj+UK17ANNieVuAzZNsBFoyjlDU/7UvlcyM1f3z0t/Z/bnLpRl8uycsLPFUQ7Ks4srSS7+Oufd2FJ4MNLKuniF1IB+I89IA9rc3CIEeGkH1ls6vbP+uC6Cy2ww04KlZYXjK5bZHz+msDSyzL5vgLNHsE+7UaUZOZLo+OnKOKy4rZuQu3z7SoOrxiANgo8rZd6tVbV+mHbToQL8U/c9gmff/j1PsMhPMev/lJnvsmZFGhB2sVwX0wXw6juLxnu+Q7uP2xmGWRxhMG+BcCzdmn17SUB5DHVpYQREaTW1/JOe0J7pcwPgIcbXenT0nLRNv7LfbZsJgLZh4du9l7ArVJfMV4oazGSC1NF8F6bkBTpXy6NeYqYnfnUV6O47AXk4H5zoNQDXmHGVDa6JoBwCxxzIH1shLI3tVpY9s9+zlBPm2qexrUTeiQB+QUMTNuRA3gK9MQW4KsBGPwvif0zAgS2wOhKADwB3nbsgj973XR9bKkbvBusfV1IsFzAoYFCQQqkEpSKMSmB1rKwOmhZbBba5TbA2NJ3pEqYTQT6LYrR7LYJcAb8EEOxQKwR7khjVJKS6kgN/WUCJQ88EijWnaC4I0ha3A25avCjaFdBLAO6USFdIAtQhyKf361tOHiPuSRoAQ5QJlUmLzco3HIM8BJhDsC6CZ6cVpmSB/viywrFlhZVly+yXxjb9siiob3RyA2Afed4kPjkt6Sb1yQkzdwxivb72t6/BfoOIf1aX04+t3vfIoXM5Kg7jMf5Hv/t0de4HX/nguCi/o1TF/zRUphxpxqwQTAvBtBScWAGOL6m8nBP0lw27HFHOUKcr9WSRmI3ttIuuNWn41w1yScBqw/dRC9ylweW05RJlkFK6Ag6yGM3jL7pYb9/usWR2gTRxjtZ8xukSfhHIS1IWj9bjtBhqkSYfMXyW9mQgtkZtCsHlyuA6M6YQjJYIp5YUVpYUlpcJy2PlHFCptr7ogf4GwZ4zGn7kjtml0yPy1qlz7StVb17GYaPnIPl1Uub/Xr3vkeow7rJDCfi/8pkX8H3ffvzyf/UXTt6vqXjtQJffMyoYM2bMCsa0YJwYK4xcm6OFOI4G9GN7ywXVQMil9xC2TyVJQDOVhChh5O5xqMJLAuSUUt4wVUdCEy+003haFBkZeYecfRjyq4DcBEGLp4v0BQk/1t9yDsC7n5MFXuct9p6CfI7VZ1k82sVUXKsAuFoZXBfGizMGSmA4IpwaKywvEZb87UhhOCSUJaB1z+r3ldknxVSSVMp2dbaq5TwTZ+Q0lse1bv9ZUuZdWldXDutuKw7rF//4Y9f47pXyc3/x5Svnhkq/1xTly1hsdk4lwMklgqaMZt8q2acOsM/cpnX+2V6I6RVMHTRXMkgo3dJLKPGElDajbUhwNlME9Gmj1Y7PaD0fvkZWWqKQllN70trFoER3b/28DFBnmTx3TAK8DeAvsDsAA1xJ+3nYbJtNI7hqGFfmBkbZ/gTLJwhLS1auWRoRxmOF0ZAwGlp/I637lMt9BXuOmTw4LKaS2CyNpW2eFqRgctU0MjENswczPaOUOaMUf/7UIZRydqusHsjxI9/7KsxmE/X2H3z132bBP5uY+clr8yk2qjledidwx7JCMSLoEVAMAT0E1MB2m9ID18S88FW4jRd622wneA6qbezSCfrUvatDDURksca+KIKZ6hn1cxyw+g77PwrdGzmZODLgTzmD9kzF124qAEJw54SRL2LhQWpddiLo+NvQ+yz7OJVsGDbTxn3POQumJLgyZ2wIY8IMXVh5ZmlEGI+sXDMe2+eGA8Kg9OZ1PdDfPBkH7Vz7RLPPgX2db18FAdq51e1NVYDnBYzRVwly313/6JMPHPbdVxzmL0+KUA6GPOP5b46L8vVE5d8U8FBrwVLJkeUxcmX52QTxTDoPOkp0kbiviUp0/u30/RwrTsE05x2QEc+FkrVqWJllkpJdH50KQFwlSFn34XOfRx1+vrlVitCuQT9Undp6uWPaQYpdC+Q5M2FInFHTkmuyYC9xxo0AhgQbLNhgxrowJixQBTAYENaGGsMhWZAfWbtq25imSbFUqpdubr6MI90yTkIEWmAfdq6qVGqdMCWS9ytV/epR2IWHGvDf94lveJS49NYfuOunSl28fAmD/1oTk8Y8a5LWtt51AVukPsGpvWbSIss/37J1TKu3uq70bXTw0OsXuYkmLCZwE0IUuQwMXMRYmgpv7lIBqJJSUIPG3yH4jBr4/QogQFJKr7pUsZKds/uujBjTXODpa9tm10g4WWQmEQn0+HAyIGDCgikY6yxYNwzWALRgOCScGijXfYwwGirbfcyZnZWFZfPK6/Oqd7q85TJO6oaZccBMwb7xtvcZOdpaJ0B+Xynzk6fPPXS5B/wDMn7x09/E333jia/ffWz5LaXSa+WSfoPSc0rl9zjZJiixagVjVWK5qPMbOtN+FqwgUsCXBODJrSi0M43XVoNC6XJLvfdw0Y4vRPmL3AC8eHCf241ngMyC+1M7CfDcTQTcps/kmb9fGYRXHKVRsmAC6gZ+QaKfBzYEnFSpptYFWVlGOryH0okjAX12Uk2lbWHUJjNmJDAABkNgeUgYlhbQRw7YB6VtPFOWNtOmKFyHsTrjq8fomw72HTJODP5oKmu7mH3lq2l1kJFTiDA9pLR5i9bzJ47KriyOyg/5l3/8rPy977/rK992fPkdpOVBIXkFBRcftQi4xJ7ArTeknTc8CBdxU1yoDi1/Edjn2L4vGCgt0NMAIBd0oDLYdLK6UGgHhnMsv3Isv7Igz1ML+rzltonbZsEKILDlrBFUBWDvNwpAn9134yS3Mi/j5HxnLNhLA/omsSsQdBvLhUxekhz5xm0BQkClBOvCqBSwSYwKAj0k6AI4MVAO1B3YlxbcByXVjeN9Qxlykk3fivAWM/tcf1rZDuybz4QJG5k4/d6BvjA9pZR5e1HMvnqYg7Tb6QqHfjz5D797QMc2HwTJ3/IBWz1sNlUCqiTokkBhwFZ7qaYI2HvRsGoqgi0FfN3N7mlbpy/H4gsH8KNmo1EA+EVeRmrVCKQplqne4XoOytwx+wlgNgHeBMyG3XhqX5Mq0f2ljcDI+Di3bAgTlh9m0ASWwVwBUom99Y8NYuDn7mwa30GqVRHr5qmZCIwWTLRgiwUoBEK2O1hR2G5hg9Jq72VpO06VpWfvtgo2ZfE9k39pZZysR84isA+DtEa5YK3LyJkXMPMSzPoSgd+hdPXA2tnzs6O0S4ujdo4sf/tmsfGsjNKWeaGNQjuBpmWmnkg128k6qaQDLLRjaIF96UB+CVDLgBo7wPdgH0wqi8xqWtN4Eg31GrwKWf8M0FsW8KvrgBo60N90wG8QB32DlYU4j3mYtk4TrTqiNuBRVo4EX4UrsSpTBZi5fy5h/qHOn4I7N/+bgUAKoCqBiTCkBIwSQNnUyJNa2faPDux9O8FCW4bvAV6R7xLWA/zBlXGQycBZAPZ1FW2Qa++raY3eAMk/IWX+n6MG9kcS8NngpCrw5yJpPtLwKSmUzYA9MrNFS+ZptVTaGRinMo4qHJNfBvQKoFYc+Duwz8YGdrpAy+X7+1ZVbOMCMrATixoEqxflMJzcSsA1rhXfksttXZ1ianxveUVkm3bXYF75hudWWTLzmOnb90mrNwBDAA3MCkGlAAwAU9jnipIwLqx1gW/mXhSerQesXTkfG9U0paF0kdaPAyjj7AHsWQVtCnUj5Rg9B+QXlTIPal1tHcVde+QA38yxAuDuKPaa65aUq7LNvRkB2Ld81NO8fNoB0Ids33XzVkPH6pfc7TCQcG60/VaX06f/bRpQHsARyDROzmECyCGu/62sMgw+kW0Q0Pgcyw8kndorfg6YmdumFvxrmccHc2H7+E6NgAuAS8GMBMUQGIwIxcDq7YOBqll7zdaVa94enRfkehL04H4ggD6ofN1xNk5UQbsA7J3zpVRNA/I6SFvpSoB/p/T8p06fO79+VHfx0QP8iYwhuKOVf494SR565zSEvKOPXxQcTVh/Z7PWnQCvz7gpm2CtKuxz2A+w324icG23oOypUAeLPeufBRq8D9Y6CsxuJ3LiwyNVwOhV02nKBXAFFFXGSqDfGw/4E6DaEkynwNV1xhYzNirGlU1Gpaw3TTkiLJXWQ/64q2oducYhZQDylrG32XoP7AcU7Bd44ew+GycB+yrItfe6vS2wYoB+R6nq/zp97vw3j/JuPnqAP0UBwlAX1CbtNdZJ0E0caBuihYCY67LdkZUTfSawK4tISSpgO+yU9/8qy91PahH85COBHKZCM380qwOl3WSggthBIHUFhmZelmEjdVaomQKzTcE3X6jw2a/P8I1Lc1QAjq0oHD9GuOOkxvElwqmTCidPaBxbbipay4KgfFBVxQlY/TgMYB+7W7aKqvYK9j4Tp66mtXq9sfn2IkLnicw5In70qO/qIwf4SmONDQrKep0Ffve5LlUL2TjlSnbRDtbuFOhDq76qyZGXKsjGCTT3fQf/sETVNN8BLhcfruhKgomMqInHQtzqJBDl61x9sX1j4SdWaVswS3zRikseqqbA489W+O2HN3B53WAwJBxbURiNCMePKazeoXB6VWP1Do3jx6yVQehP0wP8EQX7rtTL7WQcE2bjqMDq2N4K0zdImb8P4ItrZy8c+d195ABfj+g7ZUtUWmwVsX2k2k6G6RPlq7ZA+ffuWLsPT3ax4CpT22sVDhxhbIqmz9C5ocBtzpMnmWx4BohLzzSbNlXTG8gQuabf5Bg8AtCnsGuLtWfgUM9Xbd9iSXLzJezXC2xOGL/3uU1864qxRU6l9ag5tmJZ/Z1rGned1jhxTGE8do2++2rWwznCQihBXrPvsjjeaYC2UkFWjq43UxVgpj8lkn9QFLNPHbZGJj3gNxj6ShBUVGy1EJMF3Vp54leTThLbGaTt5IwX4wqg/BXgKmLVyIF+0VTVSpgCim0mmVwrqBDog7RMX3QlLj1TfDpmAOreJ0iCeQmwKZ6sAznKf75q3phmMFEcwEUwfxQF4eSKwpOXrDpUFta2YHnJdog6eULhxDGr2RcF9Wz+ELP6lNmnwdjOpuPbgL0wuSLzHNgXtnMVq0eJ+H/Tuvr4qUPUk7YH/PbJdLxF2DNuxY3HWSaHndJWhSmb30+JhW3EkgJ5hWc2YKqGQdGVs1nIVvcm36dld9xRdSvOYsEXWvnqW6nQ+PUHk14N+iHq6ybw67+beKnHLQckPBAZsA8KjUdDwvf+hRG+eanCjK1UUxaE0cB6yvsOUVr3YH+4JRxEKZaRhNPytpeMl7202xj6ycOglnGsdu+zcQqwKSBGvaCIf1Lp6hNrZ8+b22n3H8E8fFkFudSbReQ77AC1Y+CgbT5sr1dAWPdvAMwc2x40YO9tFRD66XRJPRIUQIXumCbW62vQnweTQGgUHqxivJGaKARttVCndtb+OsYVZYVprWnzcKknKd/M3VsX6RJ4zd0lfuh7V/Cpr05wdcrQzmd+UMJZDVM7Pt6PwwH2nKRdpvbGkimoCh9L0ppwOxlnrmtDNFMVEKOeIDL/UBezX1k9czi7VvWAH55TBgNSAfej7lQ86jopIYtevHmCpk9boTlgNECT2CytzpgJXDuzfvwSO4zVfjimMXiHSSYCiYG+ofXNzqsThwJtnrzUFNpMcBB7kAT0g8/1YB/0HZbSqkSvubPE2orG1y7N8dRmFWf2+CBwz/APJ6vPtBZsM31kNfuoNWEE9uQyvpRj9yrOyLHM/mtE5sd1Mf/g6plH5rfjoTh6DH+OoR52SDlZlN+Jd7vc4isDgRQS2i8ntQDZDKFQ1skYgadG8ki7YXXtH4qbmtfMP5RyEutm6WgJ6YzrbIzF3VdSu1WowgL/ykjhtXcOcHJD4VlTYTYH5nPAGKDo+8AeLrDPVMlKIOG0mL3vVBX170n+PmL2gPiiqiowQmtknOeJzE8oXf326pmHZ7fr4ThSgH/5l+9VG9+0JaNhJiZSST6yJO7o1lTnw3u8y9y/FVcK2H0lilsJZpus5EAfGUDfbYwq1N4JLUvnXLtH8U1hMoGUnIOFajzqvNWP/ZqEly8VoDkwnQk2txjLy+QAv9fxD4eEk2P1iIOz4XOcYfq55iV1Sq9LvezIxhFW3yQyb3Uyzvx2PiRHCvDF4G7SWM0l3YRxTcrpO8g1+Eas8dc55sh0qboVRVK5Jik7WYDs4wSVAjrCxxlWX+fy2/cQNZOGpKZ2zvZAPMtnm+lZCHA3FXieK1xfZ5eOqUDKmp314wCz+pzeLgnQcwbYQz8dIN+pypALewXeOPMCZu6YfaXBrL6oyJzTxezDtzvYHz1JRzAGYUg5GYdS5JcM40+Z/gLJY6HWfyuvrFs1CJ1duTyzFzSsPmL3mY9I3xKwfMUu0cclABETtBHcwRovTAzWNwTDgaAoyLlZ9hh7oFm95M3POvX6QNZBKuv4TBwmgMmZ7nmGH7peFiJMjxPxW5Q2f9SD/VEE/KZKanGKOnWBprQpCuUsD9KNbiHTPyhjmwlg0eSUWEQTiTO0kwj8lXYxbGNBfWAISxVhfYNdUZZYv5xe2jkwrD5bSJXpMxslg8n2mTiI7LCDTlWhjGO8P07BIvQVkLylLKcfvZ3y7G8rwDdznALhOKjthBzjUBCEbK1BAzbfCfbecAzB60CfNoJG7pKFs2x7fqCkb0EQ+7XMn0BGsFwpbEwN1je5NktTzuK4Hy8x0OeCqpJIOIs6VIWyTivPIAB7pqCBiUoLq1iAj5Oq/kFRzB/uwf4IA74IBiCUXT3EqeuM9WcYZaScuno0OIMp93e3w5WNTJ9aaV/9skPJqSMk0bLCCLJPCyEUFWE6FczmAmMcQPST7UsG9lmtPiPLZLNw0udSph+CvaGG3UdgX8BUGmJ0BcHHiMxbAHyhB/ujL+nEmTm0kzM2lGM8cw/WohQ28g5oCqkY9Lx+feRlnSSg7W8lI4elj7MAL/FiK9cULAR/AcYgbLHA+PaIt5mYduBYfVIFmw3MJhNAqtfn/XT8Z5CrGSSwD85WOpByCnClp4D8e1LmvtPnHvqz/iDdJoC/bREsLTh767PNV5Mmzbqj+xJMAJSA/VGDH2kDfE4Gq3MpQydOaU+M6WpBdhB+Dtj/kAhbHmz6cWsHJ0C/U1bfIdd0S0HiagMp6E5FDas3gesl6w2AH1TKvPP0ufPP9AfpdgL8hBk2rJE6TNMy8g4lYEackXoCuwDi2HPmKHJNyUhd4UQowVUviVjb+tsOWUcWgH/wpBIXnffFWz27v3XyTSZ7RgJ/mx2x+lywNrVdiLR636FKwVRBD1pTiLC6CsHPKG3uV8qs9wfqdgR86iioXXQ21+AesnZu7vtyvjqNJJR/QjnoKGXsLGL0gRVECvzCyeuNL4IEnyNBM5TObFiOFSIR22FRaVt85dsV9uMmA32un2zYwZJ3yOo7Mnmi54zLvmEv36TNxq2MI0xfJ8X/HMTvOX3uoUl/sG5nhr8TuI2M07jp4FS35PNgRrDrS+cJQ/5+aCEcsN46yniYQb9Ll+ewEW1mq5rXkW7SUnrquYEl+lj2jc25uRVj/2YKQVECZeldM3vEv1lA36nTh6ye21ygU6tfpPm7/Ho2QRaOUVHapbsVCD2kVPXjSptPrJ650OfY94C/w7KkuoCKmrMvvA/jHnuQp8bjphYTHPD74iPP9g9lEDfR2Vtgn7J40zSl9Rq+hJNCjsLHTDD8SA/2EoK9sU3OhS27n5eC8YBQlnB5+P2FfHOAfgfyTYeEI6mdMXfp/hIsEL2MY1k9txuNg1lvAfKHRObvK119efXMw30mzm0P+LKXGtSMPh1aA3uj7dowzKCVSF7bCyDQ9dNigMMg34SPOZFwQpdN77ppmsf+fr2/Um3fSjnCYSNzicG+tXiQeu6YlAweCEZDhUFJULp3zbzpQJ9pKbjo+VzFbKesU0/6Pjhrm40njB5sNMSodRC/TxG/6/Rb/+Rr/UHrAb99AtfqjSTmY+EbE1thCnT7msEnxmCSaXtYE3pqmoWEZPlAAn+O0aO9Rg8pOAL5hp23PleBnBNQ9CCAK163X8Tsg49jf1vZ12ZacH3AODa27Q3LkizD76/jmwf0SdORhUDfalLSodVH7QsJ8OmWDvR57u0RFNgUMEaLMD1NJG/Vev7+tbMXNvoD1wN+C69ywL8Q9MjJMXVOPQLmbmKQZ2r6ewCwPvVIOkOlDpLBf/mSgr8sKKBKUy3TgGyVdM2qkgYqCdhH5ZLNMr4Be6kVoWibAzyXGuy3iHFFMQZDYHmJMBq6Rig92t8UoO9MsxRk/W5km45U2fz8qJCq0exNVTjA12CjZxB8TCnz04B8RCnuJZwe8JNzWXYwIXT9Ya27Byy/dvkySHI9F+QQSuATj2wGaBvv6RbtmA7/IMmknkZafQfgs8kz+9R3v+lg0twNdfoU7Oe2sOpKZfACGQxHhFMr2rY5LAmqt1O4eUDf5VWfBGtzE4B0ZVkFXjh1cLbuPRvn1ztb4ykg/4aIf1Lr6vHVMxd6sO8BPyGuGY8zkbZ40y3tBNo1LbIfppgcE2yCuO/zGn6B1DaYgm8iHfLSDa8AJPPZHaxetsmvT6UcrhKGn0g5dTP2RvuXiOEnSlHI8GeAmQrmM+DFicEzE4OrzFhdVThxXOH4isJ4pFA6p8x+7E7etGmUki8rARYHZLt0+rptQ0faZuSl0zB68WmXQeWsGA1jChGjvk7EP0u6es/ps+ev9wexB/w2BCvMAFTpebsts+9aAviroJ4HEoRh36bPnd3RY5UAfxIDAC3O4sl+cdrd918E9lHmTC5P0vfa5STd0iQs3zS9cEPAb63xHfsD4mBtME+YGWBmgo2J4DPfnOKJaxWGI8LL7tI4dsyC/fISYTBAz+53I23uiM0HK0DueC3L9NuVsq3nwwyc1A/HKBjTgD0bPQXwB6TM27WuHlo9c8H0B7MH/OxQBa5AcA2COztxL80QTKtvJezjyklzLINsaWgrYMBoGnsHbf+g8sBfp4V2rCR2pEftFuSTKz7V29NUmTALh1PwD2Qf5KpsES+zEsWolnUqYGMi+MRXJ/jTZ2Y4doywvKIxHBKWRoTxiDAYELSiPlB7M4B+gXyTk2laFgu5vHrJs3oL9B7krZQjrK4C+EUi8y+J5PHVMxd674we8BcwfKrzANt4LHkFp82vA2lHcqAf1P+rQEMi8d06ws4dDviDHq9hX1oE3dVlQRPeTnRb0I9XkJ+M6ue5XTUbafUewKt2cRWHmTomWRVkwD75jtG3CuaWqhI8/PgU5x+bYDAkKLLWx4UGisJn5fSB2h2DPLA90He4XyCtgs7lz6eSjmTkmwyrbwqqXMolawbjAoj/BRH/29PnzvdVsz3g7wTxcV0Ymx11Po10ua2jcaLngxOJxS99VWPFALa7U0zTnJVcVS65vn0e7H2zb8qkdraAnvJy0k6ZvSB/tUf59Zxk44SsnuPq2QjkTSY4y0kLSOkEppQVbkwYj35rhlklKAdkLVUYqCpgPhfM5wLDAi096GdBPqPNt60rZMEE0AH03MH0u7J5mNypQmBWTdplw+R9EZUIqyuA/Crp6p9qZZ48dd8jPavvAX/HDP8FYbwYAnuW6O74isqAPgXLAkmCtCIW7OsJQAcM31XferYfsvy0P2wW6BcFc6VD+5du0zPpAHuYDusETjT90Mc2J+HsVoICKgNMZlIDvTEW6CdTweaWYGtLMB7ZLlf6dkzJ7FqshSDedeixB6DvqpLNZfqE8k0o4YSM3gG9sAIbbQB8AeAHFPGvrZ09/2IPxz3g72qcetNFfvKn75mnF0coI1NCfrdl+l7Tr3P0KX/Wkwd149i8Z/fasXndtG+KGL6K+8AikXcoAXyhHSICOhi9ZEA+sUNIQT87MYQSTrKju2bWtMdw8JOJgPGIsHpM49kXDZgto5/OgM0txvUNxvI6YTQiFAWBFHBb9C/fCZNPVk0RyUkmgzgbZw/STRfQG4JIIN9UqXSjvHwDsLpKZN5PxO9Uunps9czDfWC2B/y9DVViy1b2EC3MRESQvrmdkyYocNMMiqi80VoYlPVsXkwD8AjAPuzbJxQDPzJMX2gbPZ8y8k2G5oXGNcixekn0eJO8J2N7nGTg7HQJFTWp8bujAMZDhde+YoCvPTtHZYD5HJhMGRubhKvXbEvD4YBQFIAiBRocwdTMLIuXvByWzrMdbH9XbH6BdNMKAnvpJtTpW6mWug7MCuupQP4DEd+vi/nvr5650Gv1PeDfoKyjcZ3nC1hPDpN2BPrISDxBXr0EFsniQVw3VbqhnCNh01YK3p/eR0KFw+/eZROxILc+lWFkwf0U6NsJ2dvs1AzKS8Lu6361Ns1Sl8A9Ly+xvjXGxhZjMLAAP1y2c/fmpuD6BmM0IpSlWFmnOMTWCovq3yD5avFFTB7obDi2fZB2h4w+Ccg2er1q7IxD0zPWYKNZhJ4l4vdqZd4DyBN9EVUP+PsD+Iqeh4iIgETaZo3+nCXZ4xUapW1KIMGEmr/z4KltlgPdnjJyTg3oGZbvZR3JBHV3K+d0MnbO6PodlTci+f9vRwenCU/YloUEUmIBvwSUAVZWFL7vtSPr1sCNajAzgqkWbE4YG76BeSFQyso7h469YxuAx3ZMPiPttCaBeDLoZvS7AHqhKCjbsHvlDc4a+cYUYFbrBPldReZBpatPrJ09P+1htwf8/QN84GsiYDCUZHKGSWhPWLVQm0YK/Gj0Cq/NS6DVRxk6SbZOLniLnbpupi0Es/3n2hq8dKVpdiEOdr0Dw9q1eq7TgCqa/6ZwoRA1pzjV3wi0IowMYTwjrG8y1geCQSkodNP56sCx9g4psSXRdNx2AvyCxVz63vxraCpjdyTdhEAfgr1qPHAiwNdgVlsi9AUi8zNaz3537ezDfTeqHvD3f1RTuQiGEUHhE2ukq6tSQNppL1d2yw8ntEwICqrqjlmUScXMWCx7VIwkHewwPXNBKiaSDlS5Kpsc0O+V0WfF+6b/u5V0CKSlBv56UlCuvksB4rqXM4DSEMYThemWYDISDAY2V18r3FxtR3YJ8AgBW7pZflfmDTIsHguYPDKSDRbo89gB0Ati2YaTfHq2QVkP9g74KxF6nCC/QMq8Xyn++trZPijbA/7NGoxLpFBBZCiezSfeXVFHw/1AglZhlp9BpEOKSeyVKafVp7bLuaKsBQiUu6qlK01zkXaweza/iOKH8xglOj6xsyOCc6mI/pxAIiABhlPCdEuwNRKMh4JCAapIWD7d+GHdyfMimfNggT7fYvFdAJ9j8YtAHgvYfC4Qi0B9RK7ZSQLygXTT6PW6Bn02GiL0Akh+W5F5gLT5/NqZC7MeYnvAv7k/aEzTairXhbEcttOTROek4HqhhJzfGPBTA5pEzZUaBV07Cq0iC+U0H38RktECgRgLRN6UMm5DWW9cbovAvs5OVY2WTxJ40AWYRAIonxBVAcNNwmwkmI4EpbYpmqqzmznt7jjuFvi3uS+doC/ZFWcW4APgXsj0u0Ae27P5GuglUyXbAnjH7FmLMF0G5PcI8oBS1YW1s32lbA/4t2ioEdZpim+J4O5sBqFvhLLQU2efqGHqVimUn11y7J3sxdcCrm2bsdMu6SUyEeybWOwYqlWISxBymauN9AOIIjsbKIDmBD0VzKaCagCUOmOXTHv8Pbux1+6qM5PsMqDzcMjCgK0stENqgXyHXBMt4FqNTqjW6mud3ks2rmI2rJQVViKsrgrkY0TmfUTyEUA21s6e7ytle8C/dUOXuDw1eIwU/lLE8AOmL4s8dm6W8CuUZ9KUAnSXJXPm+XrVILtDJkpBKK0qvnlgH8pfddEyBf3h0zBGndHjgD9QvdSEMJ8JzJzAhUCQCd7SjR22LvVu8WJIdjTnSs6HL5V2FgF9dL9DsmnZK6TWx4FGL+Ti+Y1G74unHJv396cCfJqI30OQjxTF/NneEqEH/JdkrP7Ni9e/+c57vgEBi0B1W7oGeHBL+oznbI4lk+IvSavEVBoKPoYzoCaZx50yxT5q9HudADKhCkrAPq0985uqCGwEVeVslsMqrH3X8GVH82lrnl8U884w+K76uRzrl23y9JuJIsPmvWxT6/Vx4ZQF+MYKwW3XBPgEkfwrpaqPnD57/oUeQnvAf+lZ/gjPV1uYCWOUWsZIZnnrCe+tS+3rEnoTiUfSenja3u4+Qpm9Wivfgp+9l6+UHB8SV9NmBGKc3LMfgdtdSDqyCy2/pdtvK+XEUs1OmH7WX0fsOSV1Ri7V0k1TRKUgTHHmDSuI0SysLgFyHsT/Winz7whyfe1sb13cA/4BGaToIljWRTDKSTkSdsa65WB/g5pCJ5rJLpHrgPzETDx5RyDqhgLq2gpx9W7bHspdzIOym90rHSur7fT6TqCX9vt3wuTT/eqrYkNWb1T9PNcMnmo2z57RC/6QyPwCkXxa6eq51fse6Stke8A/WMNsyecAXAHLmg9AxU7AYlmOSuKVt0TaudmTwgH/xhKQzzSmkhYBS/49YRMx7TN0fPsB7NJNes/zrmy/YNth7Dz8A9kmTx/ppNjllOmBvcXkKQH25r4YBRFlROgJEH+EIL+ki/kjRLJ+6r5HerTsAf+ASjpjWsdUnhSD70AGQMLet1EP3L6xxs1F+05wl7h9LrfdmEPHB/FO1YVAa6B0ag5YdiwH7UXK2U7W33kevnTLQV0An0o1aMs1dv82gdfIrjhg8BHI+4wboXUIvgSSDylVfQjAn4HErJ55uD93e8A/4D9qhA0zwSMi+KuSFpdyB+j358ItBX/JtDlMN0693UTqx0SAXgIGmqCdHifmJk3ae5Jz2prQtgHcTukn170qAHmnybezblTjXhkBvJdxtECwAeBTpMxvAfiw0vPn1s483OfR94B/eIYaYAvABQgqYRRdVu6UgD7QA/9Nl3M47qAoRuquiVw1vW1DLx37mjS90gEUS4LhUDDUBE2NnLMnZr9Lpr9I3pGdsnxsA/DbsPh2tg1FwdgoEGu0A3+bZgmhqYC+TMR/AOLf0qr6wtq5C5f7s7QH/EM5Tv3wRXnu5+/9xvSqXBLGXZJk6XgdX4TiTnxyAyDRjx3LOSLt5uXsQb6Kgd8CvtjHTuJRY0G5JBgWcGAvLdfofZXw9+CjsyNgX2iB7No5cADwIYsPfW48yIvKaPQKwhoiNBOhp4n444B8qCimH187e+GZ/uTsAf9IDD3ElwB8Q4zc1fiCoGUK6VnnobHYPeygHzH8ht2LB/t5APjBCsB3VZQBQ48Fg4JQKIpsGMLCLtnv734DYC/ISDPpbQjyHszh5UifZdPYHkACYG/dV/6+EaENCH0aJJ9Wij9EZL6qFF9bPdOnVfaAf4TG6v968erT99/zJTPD65lBiuOGTSHbJxVIO9QT/P0G+jArp973jrWzB/k5YGb2VqqA1bvjVIEhpWAwFIwLwsCD/aIkQbqx772T56WzBmIBy3dpRHGbAUpuLdA33jYBsNfPq/pxAPICoRdF8AVSfIGA31DF7Muk+NJqXw3bA/6RxhqD3xTGD0slBVcEVTSaMGmfHUIN8w/TNHvU398RTrRem68aoDdTu/HcAv2sEhgjMEqwVTGKUnB8QFgulQV7SN1XPg/0+yTq3IickwN2UAvk24AfVMBKCOihbOMmAFGAYCqingP4ywT8PpH5lC7mD6+eeWSjP/H6cdsAvhriK2zwLTH4thro3WZL8d3mc7h9o6r9xIye4EfFbjW791q9B/uJYD4Brk8YlzYN1meMqmIsDQnHlgjHxwpLDuw1giBtl3nofog624F9EDjImZCKLwgIQR3IBGATqUbSIKyKAF6YDIRmgDwnoD8h4s8qVf2RCB5VqlpfO/twb0vcj9sP8Msl+ka1IZ8Uwf8oBuSDfvEm7kJK+pT3Y98AU8IuSxL3SWdjWX41A56+WuGJ5+eYG2BYAisjhXFBOFYqLHkZB5RPv/QgTzcjYNs2rmsyaqglX8Ug37ynBvEa9BNgFwCSSDdSs3mG4EWG+qIi82WQfBTAZws9e4ZIrvXmZf247QF/7Ucubj797nv+uNrA3xCWYzYnOWidp9M876YIq2f5+wv6rUpQaUBfDHB9Inj2MmOoNJYHhFEJLA0JK07GGSpCIQSqfHyznUdLPh9/r7bI6QdGE1bqb0TBCoaC91KGzTfPNYw+ea5m8OR1+C0IXRbI00TysAh9TKnqiVLNPr96pm8X2I8e8POD8QdEeEoM7o3AnhvQZxZoprgTVg/0+8uSM423ou5jRDg+KKEJ0JowKIBRQVgqCEMiaAGkIjBJ0jtGHNh7Mi7NS7QTv6HMrB5l1lAM+hHLD4C+ZvWUgH4M8rVs00wGLEIVhLYAXAPwdRH6JCnzNSL5IkQ9qlS1qRRPT/U+Nv3oAX+bH7hET3Elf8hz3EtGoOomzI7hGwA6yNjx9rs+Y6e3XNg38BdkctudBfJIa9wxLEAkUAooNDAoCEMClJDN3CHH7H2ufWiEROJAvpkAsgC/rXFaBuB9sBUBc68BGzGTR+BhEwZgQU0WDWQC4LKI+gqRPEPEjwnwRwCeUspcJ+JnV888XPVnTT/2e9wWUPb0z97zN6pN/IoqcUIPCHoIuw0ANQB0CaiSoAaAKlx/Vd9xiXq2v2eQDzxzfOWsmdsAbZ2ZMwGqLcBMCdXmUGSupxBiRRhqRVq7BuW2SblF3/p4RGxe4kmAJH+yUweTT98pKYsnSPhamDNf9yiuJ4TKZs7QBkAvAnKJSC4BuMisP03ELxCZF5XirxHJ9d6YrB89w9/HUS7RJ81EvigG/0Uk6/j0QO2qNX2KJgXNOG6rqfEmaTqZlMWwi5XSAGuBHk2ERuoacfFJ2Rp9QokeKpHvgMhr2GAVwIoIDYkwBFCApHRtTzSo6QzfYvc7COSKdLJ8O8sIRKz7PkNoLkAFoRlIJgTZAPCCCD1uWTtfs4COZwX0VWH9LMBCZKqimM9Xz/QB1n70gH/zcIdxTQ/wb6sJ/nMxQmIIYZqml3c8G627Lbmm2X0x1g2APRYo52T3L2m7shIWJZU5Lcq8Xp+a/Wq1VfzGYD5cBmhZhIYCVYgoTWReBcjLAbwCIscFdFKEhhA1AKi0Hy0nQXIqmqqp5uXN95KU95NAcFlALzr+PgfJjIApIFdBuArIUwR6hkV9g8iVj5HMtJJ1ANdXzzzca+396CWdl3I888C9f77akA8DuFcPKZZ0Bs19Vdpm2KR7aedGAT/0zBFnn2DmgJmJra6dNdW1PLOv8dzm6BPhKT2mN49O4vdOvenirgH00k9+9zEIHUfSTzIfxo1AX0BybfW+R673B7EfPcM/rD90hMd5il81M/yfXMlYaQI7dhmxfRU30UZHj/F+7IDgp9k56W6kYEJ1t6TtykoqvIJn8mOzTboAYNe9Ux1g96Ddj34E47axDDv9oxeFCnyAFB6rDbsC+92mKKujGYck/UT7sa2cE0n3CfhHk2cA/ERUTwBc4S/Or8vxfof2ox894O96lMv0VVXg/xXGTCqJLXkzwdwe9Pco5QTsPmxAYx93iPthbr2vWWIMeYbex7Qf/egBf08sf16u0AeUxkMW7KXtw+6cGtvMPwZ96UG/k9mjBfJJX9rc/pM29rcf9KMf/egBf1egJN9SJR4QwZYEQC9Vyu4Fee8dtPuz9iOyIUjbF0YN5CX202nJPMFkoDQ2iyH6jJd+9KMH/L2NO3/sUdZj+iBp/BYbGDO3rfNMpuuSGKkbc2QlHm51uLstgT70u4+8iXJGdWEzE8l0Iqs/DKACf1Iepyv9ZdqPfvSAv+dx149d3CyX6adJ4TPs0wSDFEEzb5pyhLJPS+/nBLxuF8YfMvjEBC30u49874POVVFbw1whnHXDvEYav3nnmy/2gN+PfvSAf2ODNL6gCrwTghd8HrgH/To33IN/JS29PwU4pPr+UQP/VI/PMfio6Xg4SUq7b23Y1rBqdblipfHhYkx/3F+i/ehHD/j7wfLN4Bj9th7h59lgbubSsPqQ5VdN2z2pXFu+YPOgzwatvrkt8D8sE0CHs2XojZN62odAHzYfl47AuAf9ZmKwkwIMWJX4o3IFZ4sxLveXaD/6sY9E93bfAc/+/L13zNfl53iGH1IDlLokqBLxpgEqYmM1paldMJQWbCGozqX2Xn9Js1Gk42HG90ZyXvZIspY41e8lngy9eVowgYYrAGeuNqMSv1Ou0Nvu/jsXP9dfnv3ox/6O4nbfAXf92MUrT7/7nneIwSpX+AHrqtP2R1cAWGwVqNIAi4AUgXTAiJ0FAwLglwTwyVfuUpvw3yrM7ww05wDe3YatCv0KpqXjp4VrJrMCmIeNypsetmDMVIEPFMv4iXKMx/pLsx/96AH/pozRHfSlicj/bqb451zhB63retPWzgOYKpyhmuuMRUpADJBj+36TAOxDtt916ycBuVWonwJ5B7jX4N/B6Jt9I9F+iph9EowNg+Ee9CF4UQ3xS8UY7xgs03On3nSxT3btRz96Sefmjcu/fC9NX5RXVVt4UAz+uiqgVUlQTspRRSzrqNBcrb5PjQNkKu8k5mvZiQALDNr2cqQ6YFOkA/wX3W/l1ycgH0g6zG2gr83TKsvqpQKEYUjjYT3EvyiW6IN3vvniVn8m9qMfPeDfMtCfXJZ7eYZ/yhX+mtIYq5JqoK/BPgR9lXHW9J4wKdhT4MtIeeCnm3GEpEPSyUg4Im12H90Gkk0O8MPMpZxfkXPDZAIuU4Ff1yN6lx7isTvffLHv8NSPfvSA/xIw/Wt4JU/l/zBTvJkUVpS2tslUBAHcwEJZZQEfjSmYR/KU8SNzv+PI7KoRi3QQfMmwfFkE9NJi9pCg9iDH7k1ev/cZTmBMoPBRPcT79AC/d9ffebR3tOxHP3rAf2nHpV+8d2lyWf4HrnBWGN9OGloXFvRDlp8D/No/X3VIOi2ph9pyDt3g0ZJtJoI69VLigKx0yzjoyr/PsHur4TfFVhBcJo3PqQLvLY/Rh07/6MVr/VnWj370gH9gxrcevEeLwRvMBD/KFX6ICCdIg1RBLbBXBZoUTYpBP5J0MnJOCP7RgaEbPFKJVi/Ja5J61acZOBnHywjYOwG/ln3mAC6Txh+oAh9Qmv5YjXDtzr990fRnVz/60QP+QZR4ML0mJ1DhvzdT/F02eB0RSivrJMCfSDoR2Ks8w69fC48I7XOOfobZCxaw+Uizj28XA74FegBzAJ9VJT6mND6sx/TZ3iKhH/3oAf9QjWcfvPcVZip/lSv8LTH4bgDHoUBW149TM7uydTqzd6ijSCvzeNuG3DuRdSQv46S+/ynYRzq9C+BCwACuEPCYGuIhMfid8hh9Xg/xzOqbLvYnTj/60QP+4RzPv/deJRWOmxn+ipnJ94PxA8x4lVJYBkE3Gj5FGn4nwPuVANDum5tW5O5Sw5cOeWehVh8CfAT2dRqmiGAGxjo0LiuFzwjjU8USfYkInwZhQw9h1n6kz6XvRz96wD86Ug+ZKZbmG3I3Eb7fzPBGYXwnEb5TGMcAqFi/pwbMVdzTNRvQ3cHRoTyeL5Z1Mrq9k2ECdi8x6ANMCpcAPCWMi3qExwj0J2zkS+UKXdEDvLj6pl6X70c/esC/Tcalf30vcYW1alNeaaZY0yX+khBeKxVexnMsi0FJGseJsAzCMQBj2EpnHWn29WRA+3Ok0hz8JNUSgIBQAZhBsC6MKwCuqBJXVUmPi5HPmRn+rFyhq3qIy6rAt1bf1OfM96MfPeD3w7L/X7oXXIHMDGSmQmYCFEtQ5RK9EsBpM8fLeCZ38BwjM8VAlXi5KvBqEI4DeDUAJYzTEJQASAyGwnuzwSCFGWnMQGBSuAJgC8C3IHiO53iUDV4oxpiokjbUAN9SCl+rJniKK6mKMUEVEFVCTv1wr8X3ox+Hffz/UQ3gP+DFoH0AAAAASUVORK5CYII=;" vertex="1" parent="WIyWlLk6GJQsqaUBKTNV-1">
          <mxGeometry x="483" y="110" width="70" height="70" as="geometry" />
        </mxCell>
      </root>
    </mxGraphModel>
  </diagram>
</mxfile>
